{
	"patcher" : 	{
		"fileversion" : 1,
		"rect" : [ -1.0, 44.0, 1680.0, 911.0 ],
		"bglocked" : 0,
		"defrect" : [ -1.0, 44.0, 1680.0, 911.0 ],
		"openrect" : [ 0.0, 0.0, 0.0, 0.0 ],
		"openinpresentation" : 0,
		"default_fontsize" : 12.0,
		"default_fontface" : 0,
		"default_fontname" : "Arial",
		"gridonopen" : 0,
		"gridsize" : [ 15.0, 15.0 ],
		"gridsnaponopen" : 0,
		"toolbarvisible" : 1,
		"boxanimatetime" : 200,
		"imprint" : 0,
		"boxes" : [ 			{
				"box" : 				{
					"maxclass" : "preset",
					"patching_rect" : [ 211.0, 137.0, 100.0, 40.0 ],
					"id" : "obj-169",
					"numinlets" : 1,
					"numoutlets" : 4,
					"outlettype" : [ "preset", "int", "preset", "int" ],
					"preset_data" : [ 						{
							"number" : 1,
							"data" : [ 5, "obj-27", "flonum", "float", 0.0, 5, "obj-11", "flonum", "float", 0.0, 5, "obj-21", "flonum", "float", 0.0, 5, "obj-30", "flonum", "float", 0.0, 5, "obj-44", "flonum", "float", 0.0, 5, "obj-63", "flonum", "float", 0.0, 5, "obj-67", "flonum", "float", 0.0, 5, "obj-71", "flonum", "float", 0.0, 5, "obj-75", "flonum", "float", 0.0, 5, "obj-79", "flonum", "float", 0.0, 5, "obj-83", "flonum", "float", 0.0, 5, "obj-87", "flonum", "float", 0.0, 6, "obj-5", "gain~", "list", 113, 10.0, 6, "obj-6", "gain~", "list", 107, 10.0, 6, "obj-7", "gain~", "list", 115, 10.0, 6, "obj-8", "gain~", "list", 136, 10.0, 6, "obj-16", "gain~", "list", 109, 10.0, 6, "obj-19", "gain~", "list", 108, 10.0, 6, "obj-47", "gain~", "list", 108, 10.0, 6, "obj-48", "gain~", "list", 107, 10.0, 6, "obj-49", "gain~", "list", 99, 10.0, 6, "obj-55", "gain~", "list", 124, 10.0, 6, "obj-56", "gain~", "list", 115, 10.0, 6, "obj-57", "gain~", "list", 110, 10.0, 5, "obj-155", "flonum", "float", 113.0, 5, "obj-156", "flonum", "float", 107.0, 5, "obj-157", "flonum", "float", 115.0, 5, "obj-158", "flonum", "float", 136.0, 5, "obj-159", "flonum", "float", 109.0, 5, "obj-160", "flonum", "float", 108.0, 5, "obj-161", "flonum", "float", 108.0, 5, "obj-162", "flonum", "float", 107.0, 5, "obj-163", "flonum", "float", 99.0, 5, "obj-164", "flonum", "float", 124.0, 5, "obj-165", "flonum", "float", 115.0, 5, "obj-166", "flonum", "float", 110.0 ]
						}
 ]
				}

			}
, 			{
				"box" : 				{
					"maxclass" : "message",
					"text" : "port 57848",
					"patching_rect" : [ 527.0, 317.0, 68.0, 18.0 ],
					"fontsize" : 12.0,
					"id" : "obj-168",
					"numinlets" : 2,
					"numoutlets" : 1,
					"fontname" : "Arial",
					"outlettype" : [ "" ]
				}

			}
, 			{
				"box" : 				{
					"maxclass" : "message",
					"text" : "port 57850",
					"patching_rect" : [ 527.0, 294.0, 68.0, 18.0 ],
					"fontsize" : 12.0,
					"id" : "obj-167",
					"numinlets" : 2,
					"numoutlets" : 1,
					"fontname" : "Arial",
					"outlettype" : [ "" ]
				}

			}
, 			{
				"box" : 				{
					"maxclass" : "flonum",
					"patching_rect" : [ 1369.0, 699.0, 50.0, 20.0 ],
					"fontsize" : 12.0,
					"id" : "obj-166",
					"numinlets" : 1,
					"numoutlets" : 2,
					"fontname" : "Arial",
					"outlettype" : [ "float", "bang" ]
				}

			}
, 			{
				"box" : 				{
					"maxclass" : "flonum",
					"patching_rect" : [ 1258.0, 698.0, 50.0, 20.0 ],
					"fontsize" : 12.0,
					"id" : "obj-165",
					"numinlets" : 1,
					"numoutlets" : 2,
					"fontname" : "Arial",
					"outlettype" : [ "float", "bang" ]
				}

			}
, 			{
				"box" : 				{
					"maxclass" : "flonum",
					"patching_rect" : [ 1156.0, 702.0, 50.0, 20.0 ],
					"fontsize" : 12.0,
					"id" : "obj-164",
					"numinlets" : 1,
					"numoutlets" : 2,
					"fontname" : "Arial",
					"outlettype" : [ "float", "bang" ]
				}

			}
, 			{
				"box" : 				{
					"maxclass" : "flonum",
					"patching_rect" : [ 1041.0, 699.0, 50.0, 20.0 ],
					"fontsize" : 12.0,
					"id" : "obj-163",
					"numinlets" : 1,
					"numoutlets" : 2,
					"fontname" : "Arial",
					"outlettype" : [ "float", "bang" ]
				}

			}
, 			{
				"box" : 				{
					"maxclass" : "flonum",
					"patching_rect" : [ 927.0, 697.0, 50.0, 20.0 ],
					"fontsize" : 12.0,
					"id" : "obj-162",
					"numinlets" : 1,
					"numoutlets" : 2,
					"fontname" : "Arial",
					"outlettype" : [ "float", "bang" ]
				}

			}
, 			{
				"box" : 				{
					"maxclass" : "flonum",
					"patching_rect" : [ 828.0, 696.0, 50.0, 20.0 ],
					"fontsize" : 12.0,
					"id" : "obj-161",
					"numinlets" : 1,
					"numoutlets" : 2,
					"fontname" : "Arial",
					"outlettype" : [ "float", "bang" ]
				}

			}
, 			{
				"box" : 				{
					"maxclass" : "flonum",
					"patching_rect" : [ 711.0, 692.0, 50.0, 20.0 ],
					"fontsize" : 12.0,
					"id" : "obj-160",
					"numinlets" : 1,
					"numoutlets" : 2,
					"fontname" : "Arial",
					"outlettype" : [ "float", "bang" ]
				}

			}
, 			{
				"box" : 				{
					"maxclass" : "flonum",
					"patching_rect" : [ 599.0, 689.0, 50.0, 20.0 ],
					"fontsize" : 12.0,
					"id" : "obj-159",
					"numinlets" : 1,
					"numoutlets" : 2,
					"fontname" : "Arial",
					"outlettype" : [ "float", "bang" ]
				}

			}
, 			{
				"box" : 				{
					"maxclass" : "flonum",
					"patching_rect" : [ 490.0, 689.0, 50.0, 20.0 ],
					"fontsize" : 12.0,
					"id" : "obj-158",
					"numinlets" : 1,
					"numoutlets" : 2,
					"fontname" : "Arial",
					"outlettype" : [ "float", "bang" ]
				}

			}
, 			{
				"box" : 				{
					"maxclass" : "flonum",
					"patching_rect" : [ 384.0, 686.0, 50.0, 20.0 ],
					"fontsize" : 12.0,
					"id" : "obj-157",
					"numinlets" : 1,
					"numoutlets" : 2,
					"fontname" : "Arial",
					"outlettype" : [ "float", "bang" ]
				}

			}
, 			{
				"box" : 				{
					"maxclass" : "flonum",
					"patching_rect" : [ 265.0, 688.0, 50.0, 20.0 ],
					"fontsize" : 12.0,
					"id" : "obj-156",
					"numinlets" : 1,
					"numoutlets" : 2,
					"fontname" : "Arial",
					"outlettype" : [ "float", "bang" ]
				}

			}
, 			{
				"box" : 				{
					"maxclass" : "flonum",
					"patching_rect" : [ 146.0, 692.0, 50.0, 20.0 ],
					"fontsize" : 12.0,
					"id" : "obj-155",
					"numinlets" : 1,
					"numoutlets" : 2,
					"fontname" : "Arial",
					"outlettype" : [ "float", "bang" ]
				}

			}
, 			{
				"box" : 				{
					"maxclass" : "newobj",
					"text" : "t b s",
					"patching_rect" : [ 416.0, 233.0, 33.0, 20.0 ],
					"fontsize" : 12.0,
					"id" : "obj-153",
					"numinlets" : 1,
					"numoutlets" : 2,
					"fontname" : "Arial",
					"outlettype" : [ "bang", "" ]
				}

			}
, 			{
				"box" : 				{
					"maxclass" : "newobj",
					"text" : "zl join",
					"patching_rect" : [ 418.0, 301.0, 90.0, 20.0 ],
					"fontsize" : 12.0,
					"id" : "obj-152",
					"numinlets" : 2,
					"numoutlets" : 2,
					"fontname" : "Arial",
					"outlettype" : [ "", "" ]
				}

			}
, 			{
				"box" : 				{
					"maxclass" : "newobj",
					"text" : "append 1",
					"patching_rect" : [ 418.0, 329.0, 61.0, 20.0 ],
					"fontsize" : 12.0,
					"id" : "obj-150",
					"numinlets" : 1,
					"numoutlets" : 1,
					"fontname" : "Arial",
					"outlettype" : [ "" ]
				}

			}
, 			{
				"box" : 				{
					"maxclass" : "message",
					"text" : "ZAP",
					"patching_rect" : [ 550.0, 191.0, 34.0, 18.0 ],
					"fontsize" : 12.0,
					"id" : "obj-149",
					"numinlets" : 2,
					"numoutlets" : 1,
					"fontname" : "Arial",
					"outlettype" : [ "" ]
				}

			}
, 			{
				"box" : 				{
					"maxclass" : "message",
					"text" : "VIOLA",
					"patching_rect" : [ 535.0, 176.0, 46.0, 18.0 ],
					"fontsize" : 12.0,
					"id" : "obj-148",
					"numinlets" : 2,
					"numoutlets" : 1,
					"fontname" : "Arial",
					"outlettype" : [ "" ]
				}

			}
, 			{
				"box" : 				{
					"maxclass" : "message",
					"text" : "TOY_PIANO",
					"patching_rect" : [ 520.0, 161.0, 79.0, 18.0 ],
					"fontsize" : 12.0,
					"id" : "obj-147",
					"numinlets" : 2,
					"numoutlets" : 1,
					"fontname" : "Arial",
					"outlettype" : [ "" ]
				}

			}
, 			{
				"box" : 				{
					"maxclass" : "message",
					"text" : "FEMALE",
					"patching_rect" : [ 505.0, 146.0, 59.0, 18.0 ],
					"fontsize" : 12.0,
					"id" : "obj-146",
					"numinlets" : 2,
					"numoutlets" : 1,
					"fontname" : "Arial",
					"outlettype" : [ "" ]
				}

			}
, 			{
				"box" : 				{
					"maxclass" : "message",
					"text" : "SAX",
					"patching_rect" : [ 490.0, 131.0, 35.0, 18.0 ],
					"fontsize" : 12.0,
					"id" : "obj-145",
					"numinlets" : 2,
					"numoutlets" : 1,
					"fontname" : "Arial",
					"outlettype" : [ "" ]
				}

			}
, 			{
				"box" : 				{
					"maxclass" : "message",
					"text" : "POP",
					"patching_rect" : [ 475.0, 116.0, 36.0, 18.0 ],
					"fontsize" : 12.0,
					"id" : "obj-144",
					"numinlets" : 2,
					"numoutlets" : 1,
					"fontname" : "Arial",
					"outlettype" : [ "" ]
				}

			}
, 			{
				"box" : 				{
					"maxclass" : "message",
					"text" : "CLARINET",
					"patching_rect" : [ 460.0, 101.0, 70.0, 18.0 ],
					"fontsize" : 12.0,
					"id" : "obj-61",
					"numinlets" : 2,
					"numoutlets" : 1,
					"fontname" : "Arial",
					"outlettype" : [ "" ]
				}

			}
, 			{
				"box" : 				{
					"maxclass" : "message",
					"text" : "GUITAR_CLASSIC",
					"patching_rect" : [ 445.0, 86.0, 114.0, 18.0 ],
					"fontsize" : 12.0,
					"id" : "obj-60",
					"numinlets" : 2,
					"numoutlets" : 1,
					"fontname" : "Arial",
					"outlettype" : [ "" ]
				}

			}
, 			{
				"box" : 				{
					"maxclass" : "message",
					"text" : "GUITAR_ELEC",
					"patching_rect" : [ 430.0, 71.0, 94.0, 18.0 ],
					"fontsize" : 12.0,
					"id" : "obj-59",
					"numinlets" : 2,
					"numoutlets" : 1,
					"fontname" : "Arial",
					"outlettype" : [ "" ]
				}

			}
, 			{
				"box" : 				{
					"maxclass" : "message",
					"text" : "CHING",
					"patching_rect" : [ 415.0, 56.0, 49.0, 18.0 ],
					"fontsize" : 12.0,
					"id" : "obj-58",
					"numinlets" : 2,
					"numoutlets" : 1,
					"fontname" : "Arial",
					"outlettype" : [ "" ]
				}

			}
, 			{
				"box" : 				{
					"maxclass" : "message",
					"text" : "BANJO",
					"patching_rect" : [ 400.0, 37.0, 51.0, 18.0 ],
					"fontsize" : 12.0,
					"id" : "obj-40",
					"numinlets" : 2,
					"numoutlets" : 1,
					"fontname" : "Arial",
					"outlettype" : [ "" ]
				}

			}
, 			{
				"box" : 				{
					"maxclass" : "message",
					"text" : "BUZZ",
					"patching_rect" : [ 385.0, 22.0, 42.0, 18.0 ],
					"fontsize" : 12.0,
					"id" : "obj-4",
					"numinlets" : 2,
					"numoutlets" : 1,
					"fontname" : "Arial",
					"outlettype" : [ "" ]
				}

			}
, 			{
				"box" : 				{
					"maxclass" : "gain~",
					"patching_rect" : [ 1358.0, 621.0, 21.0, 71.0 ],
					"id" : "obj-57",
					"numinlets" : 2,
					"numoutlets" : 2,
					"outlettype" : [ "signal", "int" ]
				}

			}
, 			{
				"box" : 				{
					"maxclass" : "gain~",
					"patching_rect" : [ 1247.0, 616.0, 21.0, 71.0 ],
					"id" : "obj-56",
					"numinlets" : 2,
					"numoutlets" : 2,
					"outlettype" : [ "signal", "int" ]
				}

			}
, 			{
				"box" : 				{
					"maxclass" : "gain~",
					"patching_rect" : [ 1143.0, 623.0, 21.0, 71.0 ],
					"id" : "obj-55",
					"numinlets" : 2,
					"numoutlets" : 2,
					"outlettype" : [ "signal", "int" ]
				}

			}
, 			{
				"box" : 				{
					"maxclass" : "gain~",
					"patching_rect" : [ 1025.0, 623.0, 21.0, 71.0 ],
					"id" : "obj-49",
					"numinlets" : 2,
					"numoutlets" : 2,
					"outlettype" : [ "signal", "int" ]
				}

			}
, 			{
				"box" : 				{
					"maxclass" : "gain~",
					"patching_rect" : [ 913.0, 622.0, 21.0, 71.0 ],
					"id" : "obj-48",
					"numinlets" : 2,
					"numoutlets" : 2,
					"outlettype" : [ "signal", "int" ]
				}

			}
, 			{
				"box" : 				{
					"maxclass" : "gain~",
					"patching_rect" : [ 805.0, 621.0, 21.0, 71.0 ],
					"id" : "obj-47",
					"numinlets" : 2,
					"numoutlets" : 2,
					"outlettype" : [ "signal", "int" ]
				}

			}
, 			{
				"box" : 				{
					"maxclass" : "gain~",
					"patching_rect" : [ 688.0, 619.0, 21.0, 71.0 ],
					"id" : "obj-19",
					"numinlets" : 2,
					"numoutlets" : 2,
					"outlettype" : [ "signal", "int" ]
				}

			}
, 			{
				"box" : 				{
					"maxclass" : "gain~",
					"patching_rect" : [ 578.0, 617.0, 21.0, 71.0 ],
					"id" : "obj-16",
					"numinlets" : 2,
					"numoutlets" : 2,
					"outlettype" : [ "signal", "int" ]
				}

			}
, 			{
				"box" : 				{
					"maxclass" : "gain~",
					"patching_rect" : [ 463.0, 616.0, 21.0, 71.0 ],
					"id" : "obj-8",
					"numinlets" : 2,
					"numoutlets" : 2,
					"outlettype" : [ "signal", "int" ]
				}

			}
, 			{
				"box" : 				{
					"maxclass" : "gain~",
					"patching_rect" : [ 345.0, 615.0, 21.0, 71.0 ],
					"id" : "obj-7",
					"numinlets" : 2,
					"numoutlets" : 2,
					"outlettype" : [ "signal", "int" ]
				}

			}
, 			{
				"box" : 				{
					"maxclass" : "gain~",
					"patching_rect" : [ 243.0, 616.0, 21.0, 71.0 ],
					"id" : "obj-6",
					"numinlets" : 2,
					"numoutlets" : 2,
					"outlettype" : [ "signal", "int" ]
				}

			}
, 			{
				"box" : 				{
					"maxclass" : "gain~",
					"patching_rect" : [ 135.0, 616.0, 21.0, 71.0 ],
					"id" : "obj-5",
					"numinlets" : 2,
					"numoutlets" : 2,
					"outlettype" : [ "signal", "int" ]
				}

			}
, 			{
				"box" : 				{
					"maxclass" : "newobj",
					"text" : "loadbang",
					"patching_rect" : [ 48.0, 786.0, 60.0, 20.0 ],
					"fontsize" : 12.0,
					"id" : "obj-143",
					"numinlets" : 1,
					"numoutlets" : 1,
					"fontname" : "Arial",
					"outlettype" : [ "bang" ]
				}

			}
, 			{
				"box" : 				{
					"maxclass" : "button",
					"patching_rect" : [ 1496.0, 999.0, 20.0, 20.0 ],
					"id" : "obj-138",
					"numinlets" : 1,
					"numoutlets" : 1,
					"outlettype" : [ "bang" ]
				}

			}
, 			{
				"box" : 				{
					"maxclass" : "message",
					"text" : "zap.wav",
					"patching_rect" : [ 1428.0, 853.0, 55.0, 18.0 ],
					"fontsize" : 12.0,
					"id" : "obj-139",
					"numinlets" : 2,
					"numoutlets" : 1,
					"fontname" : "Arial",
					"outlettype" : [ "" ]
				}

			}
, 			{
				"box" : 				{
					"maxclass" : "message",
					"text" : "read",
					"patching_rect" : [ 1427.0, 917.0, 35.0, 18.0 ],
					"fontsize" : 12.0,
					"id" : "obj-140",
					"numinlets" : 2,
					"numoutlets" : 1,
					"fontname" : "Arial",
					"outlettype" : [ "" ]
				}

			}
, 			{
				"box" : 				{
					"maxclass" : "newobj",
					"text" : "zl join",
					"patching_rect" : [ 1427.0, 945.0, 49.0, 20.0 ],
					"fontsize" : 12.0,
					"id" : "obj-141",
					"numinlets" : 2,
					"numoutlets" : 2,
					"fontname" : "Arial",
					"outlettype" : [ "", "" ]
				}

			}
, 			{
				"box" : 				{
					"maxclass" : "newobj",
					"text" : "buffer~ ZAP",
					"patching_rect" : [ 1427.0, 971.0, 75.0, 20.0 ],
					"fontsize" : 12.0,
					"id" : "obj-142",
					"numinlets" : 1,
					"numoutlets" : 2,
					"fontname" : "Arial",
					"outlettype" : [ "float", "bang" ]
				}

			}
, 			{
				"box" : 				{
					"maxclass" : "button",
					"patching_rect" : [ 1370.0, 999.0, 20.0, 20.0 ],
					"id" : "obj-133",
					"numinlets" : 1,
					"numoutlets" : 1,
					"outlettype" : [ "bang" ]
				}

			}
, 			{
				"box" : 				{
					"maxclass" : "message",
					"text" : "viola-harmonic-gliss-Eb.wav",
					"patching_rect" : [ 1302.0, 853.0, 160.0, 18.0 ],
					"fontsize" : 12.0,
					"id" : "obj-134",
					"numinlets" : 2,
					"numoutlets" : 1,
					"fontname" : "Arial",
					"outlettype" : [ "" ]
				}

			}
, 			{
				"box" : 				{
					"maxclass" : "message",
					"text" : "read",
					"patching_rect" : [ 1301.0, 917.0, 35.0, 18.0 ],
					"fontsize" : 12.0,
					"id" : "obj-135",
					"numinlets" : 2,
					"numoutlets" : 1,
					"fontname" : "Arial",
					"outlettype" : [ "" ]
				}

			}
, 			{
				"box" : 				{
					"maxclass" : "newobj",
					"text" : "zl join",
					"patching_rect" : [ 1301.0, 945.0, 49.0, 20.0 ],
					"fontsize" : 12.0,
					"id" : "obj-136",
					"numinlets" : 2,
					"numoutlets" : 2,
					"fontname" : "Arial",
					"outlettype" : [ "", "" ]
				}

			}
, 			{
				"box" : 				{
					"maxclass" : "newobj",
					"text" : "buffer~ VIOLA",
					"patching_rect" : [ 1301.0, 971.0, 87.0, 20.0 ],
					"fontsize" : 12.0,
					"id" : "obj-137",
					"numinlets" : 1,
					"numoutlets" : 2,
					"fontname" : "Arial",
					"outlettype" : [ "float", "bang" ]
				}

			}
, 			{
				"box" : 				{
					"maxclass" : "button",
					"patching_rect" : [ 1244.0, 1003.0, 20.0, 20.0 ],
					"id" : "obj-128",
					"numinlets" : 1,
					"numoutlets" : 1,
					"outlettype" : [ "bang" ]
				}

			}
, 			{
				"box" : 				{
					"maxclass" : "message",
					"text" : "toy-piano-Eb-hi.wav",
					"patching_rect" : [ 1176.0, 857.0, 117.0, 18.0 ],
					"fontsize" : 12.0,
					"id" : "obj-129",
					"numinlets" : 2,
					"numoutlets" : 1,
					"fontname" : "Arial",
					"outlettype" : [ "" ]
				}

			}
, 			{
				"box" : 				{
					"maxclass" : "message",
					"text" : "read",
					"patching_rect" : [ 1175.0, 921.0, 35.0, 18.0 ],
					"fontsize" : 12.0,
					"id" : "obj-130",
					"numinlets" : 2,
					"numoutlets" : 1,
					"fontname" : "Arial",
					"outlettype" : [ "" ]
				}

			}
, 			{
				"box" : 				{
					"maxclass" : "newobj",
					"text" : "zl join",
					"patching_rect" : [ 1175.0, 949.0, 49.0, 20.0 ],
					"fontsize" : 12.0,
					"id" : "obj-131",
					"numinlets" : 2,
					"numoutlets" : 2,
					"fontname" : "Arial",
					"outlettype" : [ "", "" ]
				}

			}
, 			{
				"box" : 				{
					"maxclass" : "newobj",
					"text" : "buffer~ TOY_PIANO",
					"patching_rect" : [ 1175.0, 975.0, 120.0, 20.0 ],
					"fontsize" : 12.0,
					"id" : "obj-132",
					"numinlets" : 1,
					"numoutlets" : 2,
					"fontname" : "Arial",
					"outlettype" : [ "float", "bang" ]
				}

			}
, 			{
				"box" : 				{
					"maxclass" : "button",
					"patching_rect" : [ 1117.0, 1007.0, 20.0, 20.0 ],
					"id" : "obj-123",
					"numinlets" : 1,
					"numoutlets" : 1,
					"outlettype" : [ "bang" ]
				}

			}
, 			{
				"box" : 				{
					"maxclass" : "message",
					"text" : "singing-female1-Eb-hi.wav",
					"patching_rect" : [ 1049.0, 861.0, 152.0, 18.0 ],
					"fontsize" : 12.0,
					"id" : "obj-124",
					"numinlets" : 2,
					"numoutlets" : 1,
					"fontname" : "Arial",
					"outlettype" : [ "" ]
				}

			}
, 			{
				"box" : 				{
					"maxclass" : "message",
					"text" : "read",
					"patching_rect" : [ 1048.0, 925.0, 35.0, 18.0 ],
					"fontsize" : 12.0,
					"id" : "obj-125",
					"numinlets" : 2,
					"numoutlets" : 1,
					"fontname" : "Arial",
					"outlettype" : [ "" ]
				}

			}
, 			{
				"box" : 				{
					"maxclass" : "newobj",
					"text" : "zl join",
					"patching_rect" : [ 1048.0, 953.0, 49.0, 20.0 ],
					"fontsize" : 12.0,
					"id" : "obj-126",
					"numinlets" : 2,
					"numoutlets" : 2,
					"fontname" : "Arial",
					"outlettype" : [ "", "" ]
				}

			}
, 			{
				"box" : 				{
					"maxclass" : "newobj",
					"text" : "buffer~ FEMALE",
					"patching_rect" : [ 1048.0, 979.0, 99.0, 20.0 ],
					"fontsize" : 12.0,
					"id" : "obj-127",
					"numinlets" : 1,
					"numoutlets" : 2,
					"fontname" : "Arial",
					"outlettype" : [ "float", "bang" ]
				}

			}
, 			{
				"box" : 				{
					"maxclass" : "button",
					"patching_rect" : [ 994.0, 1003.0, 20.0, 20.0 ],
					"id" : "obj-118",
					"numinlets" : 1,
					"numoutlets" : 1,
					"outlettype" : [ "bang" ]
				}

			}
, 			{
				"box" : 				{
					"maxclass" : "message",
					"text" : "saxophone-alto-Eb-octave0.wav",
					"patching_rect" : [ 926.0, 857.0, 182.0, 18.0 ],
					"fontsize" : 12.0,
					"id" : "obj-119",
					"numinlets" : 2,
					"numoutlets" : 1,
					"fontname" : "Arial",
					"outlettype" : [ "" ]
				}

			}
, 			{
				"box" : 				{
					"maxclass" : "message",
					"text" : "read",
					"patching_rect" : [ 925.0, 921.0, 35.0, 18.0 ],
					"fontsize" : 12.0,
					"id" : "obj-120",
					"numinlets" : 2,
					"numoutlets" : 1,
					"fontname" : "Arial",
					"outlettype" : [ "" ]
				}

			}
, 			{
				"box" : 				{
					"maxclass" : "newobj",
					"text" : "zl join",
					"patching_rect" : [ 925.0, 949.0, 49.0, 20.0 ],
					"fontsize" : 12.0,
					"id" : "obj-121",
					"numinlets" : 2,
					"numoutlets" : 2,
					"fontname" : "Arial",
					"outlettype" : [ "", "" ]
				}

			}
, 			{
				"box" : 				{
					"maxclass" : "newobj",
					"text" : "buffer~ SAX",
					"patching_rect" : [ 925.0, 975.0, 75.0, 20.0 ],
					"fontsize" : 12.0,
					"id" : "obj-122",
					"numinlets" : 1,
					"numoutlets" : 2,
					"fontname" : "Arial",
					"outlettype" : [ "float", "bang" ]
				}

			}
, 			{
				"box" : 				{
					"maxclass" : "button",
					"patching_rect" : [ 868.0, 1004.0, 20.0, 20.0 ],
					"id" : "obj-113",
					"numinlets" : 1,
					"numoutlets" : 1,
					"outlettype" : [ "bang" ]
				}

			}
, 			{
				"box" : 				{
					"maxclass" : "message",
					"text" : "pop.wav",
					"patching_rect" : [ 800.0, 858.0, 55.0, 18.0 ],
					"fontsize" : 12.0,
					"id" : "obj-114",
					"numinlets" : 2,
					"numoutlets" : 1,
					"fontname" : "Arial",
					"outlettype" : [ "" ]
				}

			}
, 			{
				"box" : 				{
					"maxclass" : "message",
					"text" : "read",
					"patching_rect" : [ 799.0, 922.0, 35.0, 18.0 ],
					"fontsize" : 12.0,
					"id" : "obj-115",
					"numinlets" : 2,
					"numoutlets" : 1,
					"fontname" : "Arial",
					"outlettype" : [ "" ]
				}

			}
, 			{
				"box" : 				{
					"maxclass" : "newobj",
					"text" : "zl join",
					"patching_rect" : [ 799.0, 950.0, 49.0, 20.0 ],
					"fontsize" : 12.0,
					"id" : "obj-116",
					"numinlets" : 2,
					"numoutlets" : 2,
					"fontname" : "Arial",
					"outlettype" : [ "", "" ]
				}

			}
, 			{
				"box" : 				{
					"maxclass" : "newobj",
					"text" : "buffer~ POP",
					"patching_rect" : [ 799.0, 976.0, 77.0, 20.0 ],
					"fontsize" : 12.0,
					"id" : "obj-117",
					"numinlets" : 1,
					"numoutlets" : 2,
					"fontname" : "Arial",
					"outlettype" : [ "float", "bang" ]
				}

			}
, 			{
				"box" : 				{
					"maxclass" : "button",
					"patching_rect" : [ 744.0, 1001.0, 20.0, 20.0 ],
					"id" : "obj-108",
					"numinlets" : 1,
					"numoutlets" : 1,
					"outlettype" : [ "bang" ]
				}

			}
, 			{
				"box" : 				{
					"maxclass" : "message",
					"text" : "clarinet-Eb-octave2.wav",
					"patching_rect" : [ 675.0, 871.0, 139.0, 18.0 ],
					"fontsize" : 12.0,
					"id" : "obj-109",
					"numinlets" : 2,
					"numoutlets" : 1,
					"fontname" : "Arial",
					"outlettype" : [ "" ]
				}

			}
, 			{
				"box" : 				{
					"maxclass" : "message",
					"text" : "read",
					"patching_rect" : [ 675.0, 919.0, 35.0, 18.0 ],
					"fontsize" : 12.0,
					"id" : "obj-110",
					"numinlets" : 2,
					"numoutlets" : 1,
					"fontname" : "Arial",
					"outlettype" : [ "" ]
				}

			}
, 			{
				"box" : 				{
					"maxclass" : "newobj",
					"text" : "zl join",
					"patching_rect" : [ 675.0, 947.0, 49.0, 20.0 ],
					"fontsize" : 12.0,
					"id" : "obj-111",
					"numinlets" : 2,
					"numoutlets" : 2,
					"fontname" : "Arial",
					"outlettype" : [ "", "" ]
				}

			}
, 			{
				"box" : 				{
					"maxclass" : "newobj",
					"text" : "buffer~ CLARINET",
					"patching_rect" : [ 675.0, 973.0, 111.0, 20.0 ],
					"fontsize" : 12.0,
					"id" : "obj-112",
					"numinlets" : 1,
					"numoutlets" : 2,
					"fontname" : "Arial",
					"outlettype" : [ "float", "bang" ]
				}

			}
, 			{
				"box" : 				{
					"maxclass" : "button",
					"patching_rect" : [ 618.0, 1037.0, 20.0, 20.0 ],
					"id" : "obj-103",
					"numinlets" : 1,
					"numoutlets" : 1,
					"outlettype" : [ "bang" ]
				}

			}
, 			{
				"box" : 				{
					"maxclass" : "message",
					"text" : "guitar-classical-Eb-octave3.wav",
					"patching_rect" : [ 550.0, 894.0, 179.0, 18.0 ],
					"fontsize" : 12.0,
					"id" : "obj-104",
					"numinlets" : 2,
					"numoutlets" : 1,
					"fontname" : "Arial",
					"outlettype" : [ "" ]
				}

			}
, 			{
				"box" : 				{
					"maxclass" : "message",
					"text" : "read",
					"patching_rect" : [ 549.0, 917.0, 35.0, 18.0 ],
					"fontsize" : 12.0,
					"id" : "obj-105",
					"numinlets" : 2,
					"numoutlets" : 1,
					"fontname" : "Arial",
					"outlettype" : [ "" ]
				}

			}
, 			{
				"box" : 				{
					"maxclass" : "newobj",
					"text" : "zl join",
					"patching_rect" : [ 549.0, 945.0, 49.0, 20.0 ],
					"fontsize" : 12.0,
					"id" : "obj-106",
					"numinlets" : 2,
					"numoutlets" : 2,
					"fontname" : "Arial",
					"outlettype" : [ "", "" ]
				}

			}
, 			{
				"box" : 				{
					"maxclass" : "newobj",
					"text" : "buffer~ GUITAR_CLASSIC",
					"patching_rect" : [ 549.0, 1008.0, 155.0, 20.0 ],
					"fontsize" : 12.0,
					"id" : "obj-107",
					"numinlets" : 1,
					"numoutlets" : 2,
					"fontname" : "Arial",
					"outlettype" : [ "float", "bang" ]
				}

			}
, 			{
				"box" : 				{
					"maxclass" : "button",
					"patching_rect" : [ 493.0, 999.0, 20.0, 20.0 ],
					"id" : "obj-98",
					"numinlets" : 1,
					"numoutlets" : 1,
					"outlettype" : [ "bang" ]
				}

			}
, 			{
				"box" : 				{
					"maxclass" : "message",
					"text" : "guitar-elec-solid-dist-Eb-octave1-long.wav",
					"patching_rect" : [ 423.0, 874.0, 234.0, 18.0 ],
					"fontsize" : 12.0,
					"id" : "obj-99",
					"numinlets" : 2,
					"numoutlets" : 1,
					"fontname" : "Arial",
					"outlettype" : [ "" ]
				}

			}
, 			{
				"box" : 				{
					"maxclass" : "message",
					"text" : "read",
					"patching_rect" : [ 424.0, 917.0, 35.0, 18.0 ],
					"fontsize" : 12.0,
					"id" : "obj-100",
					"numinlets" : 2,
					"numoutlets" : 1,
					"fontname" : "Arial",
					"outlettype" : [ "" ]
				}

			}
, 			{
				"box" : 				{
					"maxclass" : "newobj",
					"text" : "zl join",
					"patching_rect" : [ 424.0, 945.0, 49.0, 20.0 ],
					"fontsize" : 12.0,
					"id" : "obj-101",
					"numinlets" : 2,
					"numoutlets" : 2,
					"fontname" : "Arial",
					"outlettype" : [ "", "" ]
				}

			}
, 			{
				"box" : 				{
					"maxclass" : "newobj",
					"text" : "buffer~ GUITAR_ELEC",
					"patching_rect" : [ 425.0, 971.0, 135.0, 20.0 ],
					"fontsize" : 12.0,
					"id" : "obj-102",
					"numinlets" : 1,
					"numoutlets" : 2,
					"fontname" : "Arial",
					"outlettype" : [ "float", "bang" ]
				}

			}
, 			{
				"box" : 				{
					"maxclass" : "button",
					"patching_rect" : [ 366.0, 998.0, 20.0, 20.0 ],
					"id" : "obj-93",
					"numinlets" : 1,
					"numoutlets" : 1,
					"outlettype" : [ "bang" ]
				}

			}
, 			{
				"box" : 				{
					"maxclass" : "message",
					"text" : "ching.wav",
					"patching_rect" : [ 298.0, 852.0, 64.0, 18.0 ],
					"fontsize" : 12.0,
					"id" : "obj-94",
					"numinlets" : 2,
					"numoutlets" : 1,
					"fontname" : "Arial",
					"outlettype" : [ "" ]
				}

			}
, 			{
				"box" : 				{
					"maxclass" : "message",
					"text" : "read",
					"patching_rect" : [ 297.0, 916.0, 35.0, 18.0 ],
					"fontsize" : 12.0,
					"id" : "obj-95",
					"numinlets" : 2,
					"numoutlets" : 1,
					"fontname" : "Arial",
					"outlettype" : [ "" ]
				}

			}
, 			{
				"box" : 				{
					"maxclass" : "newobj",
					"text" : "zl join",
					"patching_rect" : [ 297.0, 944.0, 49.0, 20.0 ],
					"fontsize" : 12.0,
					"id" : "obj-96",
					"numinlets" : 2,
					"numoutlets" : 2,
					"fontname" : "Arial",
					"outlettype" : [ "", "" ]
				}

			}
, 			{
				"box" : 				{
					"maxclass" : "newobj",
					"text" : "buffer~ CHING",
					"patching_rect" : [ 297.0, 969.0, 90.0, 20.0 ],
					"fontsize" : 12.0,
					"id" : "obj-97",
					"numinlets" : 1,
					"numoutlets" : 2,
					"fontname" : "Arial",
					"outlettype" : [ "float", "bang" ]
				}

			}
, 			{
				"box" : 				{
					"maxclass" : "newobj",
					"text" : "t b b b b b b b b b b b b",
					"patching_rect" : [ 48.0, 817.0, 1398.5, 20.0 ],
					"fontsize" : 12.0,
					"id" : "obj-92",
					"numinlets" : 1,
					"numoutlets" : 12,
					"fontname" : "Arial",
					"outlettype" : [ "bang", "bang", "bang", "bang", "bang", "bang", "bang", "bang", "bang", "bang", "bang", "bang" ]
				}

			}
, 			{
				"box" : 				{
					"maxclass" : "newobj",
					"text" : "send trigger",
					"patching_rect" : [ 680.0, 345.0, 74.0, 20.0 ],
					"fontsize" : 12.0,
					"id" : "obj-91",
					"numinlets" : 1,
					"numoutlets" : 0,
					"fontname" : "Arial"
				}

			}
, 			{
				"box" : 				{
					"maxclass" : "newobj",
					"text" : "receive trigger",
					"patching_rect" : [ 135.0, 373.0, 87.0, 20.0 ],
					"fontsize" : 12.0,
					"id" : "obj-90",
					"numinlets" : 0,
					"numoutlets" : 1,
					"fontname" : "Arial",
					"outlettype" : [ "" ]
				}

			}
, 			{
				"box" : 				{
					"maxclass" : "button",
					"patching_rect" : [ 1357.0, 494.0, 20.0, 20.0 ],
					"id" : "obj-86",
					"numinlets" : 1,
					"numoutlets" : 1,
					"outlettype" : [ "bang" ]
				}

			}
, 			{
				"box" : 				{
					"maxclass" : "flonum",
					"patching_rect" : [ 1357.0, 520.0, 50.0, 20.0 ],
					"fontsize" : 11.595187,
					"id" : "obj-87",
					"numinlets" : 1,
					"numoutlets" : 2,
					"fontname" : "Arial",
					"outlettype" : [ "float", "bang" ]
				}

			}
, 			{
				"box" : 				{
					"maxclass" : "newobj",
					"text" : "sig~",
					"patching_rect" : [ 1430.0, 507.0, 33.0, 20.0 ],
					"fontsize" : 12.0,
					"id" : "obj-88",
					"numinlets" : 1,
					"numoutlets" : 1,
					"fontname" : "Arial",
					"outlettype" : [ "signal" ]
				}

			}
, 			{
				"box" : 				{
					"maxclass" : "newobj",
					"text" : "groove~ ZAP",
					"patching_rect" : [ 1357.0, 552.0, 81.0, 20.0 ],
					"fontsize" : 12.0,
					"id" : "obj-89",
					"numinlets" : 3,
					"numoutlets" : 2,
					"fontname" : "Arial",
					"outlettype" : [ "signal", "signal" ]
				}

			}
, 			{
				"box" : 				{
					"maxclass" : "button",
					"patching_rect" : [ 1247.0, 494.0, 20.0, 20.0 ],
					"id" : "obj-82",
					"numinlets" : 1,
					"numoutlets" : 1,
					"outlettype" : [ "bang" ]
				}

			}
, 			{
				"box" : 				{
					"maxclass" : "flonum",
					"patching_rect" : [ 1247.0, 520.0, 50.0, 20.0 ],
					"fontsize" : 11.595187,
					"id" : "obj-83",
					"numinlets" : 1,
					"numoutlets" : 2,
					"fontname" : "Arial",
					"outlettype" : [ "float", "bang" ]
				}

			}
, 			{
				"box" : 				{
					"maxclass" : "newobj",
					"text" : "sig~",
					"patching_rect" : [ 1320.0, 507.0, 33.0, 20.0 ],
					"fontsize" : 12.0,
					"id" : "obj-84",
					"numinlets" : 1,
					"numoutlets" : 1,
					"fontname" : "Arial",
					"outlettype" : [ "signal" ]
				}

			}
, 			{
				"box" : 				{
					"maxclass" : "newobj",
					"text" : "groove~ VIOLA",
					"patching_rect" : [ 1247.0, 552.0, 93.0, 20.0 ],
					"fontsize" : 12.0,
					"id" : "obj-85",
					"numinlets" : 3,
					"numoutlets" : 2,
					"fontname" : "Arial",
					"outlettype" : [ "signal", "signal" ]
				}

			}
, 			{
				"box" : 				{
					"maxclass" : "button",
					"patching_rect" : [ 1138.0, 493.0, 20.0, 20.0 ],
					"id" : "obj-78",
					"numinlets" : 1,
					"numoutlets" : 1,
					"outlettype" : [ "bang" ]
				}

			}
, 			{
				"box" : 				{
					"maxclass" : "flonum",
					"patching_rect" : [ 1138.0, 519.0, 50.0, 20.0 ],
					"fontsize" : 11.595187,
					"id" : "obj-79",
					"numinlets" : 1,
					"numoutlets" : 2,
					"fontname" : "Arial",
					"outlettype" : [ "float", "bang" ]
				}

			}
, 			{
				"box" : 				{
					"maxclass" : "newobj",
					"text" : "sig~",
					"patching_rect" : [ 1211.0, 506.0, 33.0, 20.0 ],
					"fontsize" : 12.0,
					"id" : "obj-80",
					"numinlets" : 1,
					"numoutlets" : 1,
					"fontname" : "Arial",
					"outlettype" : [ "signal" ]
				}

			}
, 			{
				"box" : 				{
					"maxclass" : "newobj",
					"text" : "groove~ TOY_PIANO",
					"patching_rect" : [ 1138.0, 551.0, 126.0, 20.0 ],
					"fontsize" : 12.0,
					"id" : "obj-81",
					"numinlets" : 3,
					"numoutlets" : 2,
					"fontname" : "Arial",
					"outlettype" : [ "signal", "signal" ]
				}

			}
, 			{
				"box" : 				{
					"maxclass" : "button",
					"patching_rect" : [ 1025.0, 492.0, 20.0, 20.0 ],
					"id" : "obj-74",
					"numinlets" : 1,
					"numoutlets" : 1,
					"outlettype" : [ "bang" ]
				}

			}
, 			{
				"box" : 				{
					"maxclass" : "flonum",
					"patching_rect" : [ 1025.0, 518.0, 50.0, 20.0 ],
					"fontsize" : 11.595187,
					"id" : "obj-75",
					"numinlets" : 1,
					"numoutlets" : 2,
					"fontname" : "Arial",
					"outlettype" : [ "float", "bang" ]
				}

			}
, 			{
				"box" : 				{
					"maxclass" : "newobj",
					"text" : "sig~",
					"patching_rect" : [ 1098.0, 505.0, 33.0, 20.0 ],
					"fontsize" : 12.0,
					"id" : "obj-76",
					"numinlets" : 1,
					"numoutlets" : 1,
					"fontname" : "Arial",
					"outlettype" : [ "signal" ]
				}

			}
, 			{
				"box" : 				{
					"maxclass" : "newobj",
					"text" : "groove~ FEMALE",
					"patching_rect" : [ 1025.0, 550.0, 106.0, 20.0 ],
					"fontsize" : 12.0,
					"id" : "obj-77",
					"numinlets" : 3,
					"numoutlets" : 2,
					"fontname" : "Arial",
					"outlettype" : [ "signal", "signal" ]
				}

			}
, 			{
				"box" : 				{
					"maxclass" : "button",
					"patching_rect" : [ 910.0, 492.0, 20.0, 20.0 ],
					"id" : "obj-70",
					"numinlets" : 1,
					"numoutlets" : 1,
					"outlettype" : [ "bang" ]
				}

			}
, 			{
				"box" : 				{
					"maxclass" : "flonum",
					"patching_rect" : [ 910.0, 518.0, 50.0, 20.0 ],
					"fontsize" : 11.595187,
					"id" : "obj-71",
					"numinlets" : 1,
					"numoutlets" : 2,
					"fontname" : "Arial",
					"outlettype" : [ "float", "bang" ]
				}

			}
, 			{
				"box" : 				{
					"maxclass" : "newobj",
					"text" : "sig~",
					"patching_rect" : [ 983.0, 505.0, 33.0, 20.0 ],
					"fontsize" : 12.0,
					"id" : "obj-72",
					"numinlets" : 1,
					"numoutlets" : 1,
					"fontname" : "Arial",
					"outlettype" : [ "signal" ]
				}

			}
, 			{
				"box" : 				{
					"maxclass" : "newobj",
					"text" : "groove~ SAX",
					"patching_rect" : [ 910.0, 550.0, 82.0, 20.0 ],
					"fontsize" : 12.0,
					"id" : "obj-73",
					"numinlets" : 3,
					"numoutlets" : 2,
					"fontname" : "Arial",
					"outlettype" : [ "signal", "signal" ]
				}

			}
, 			{
				"box" : 				{
					"maxclass" : "button",
					"patching_rect" : [ 797.0, 489.0, 20.0, 20.0 ],
					"id" : "obj-66",
					"numinlets" : 1,
					"numoutlets" : 1,
					"outlettype" : [ "bang" ]
				}

			}
, 			{
				"box" : 				{
					"maxclass" : "flonum",
					"patching_rect" : [ 797.0, 515.0, 50.0, 20.0 ],
					"fontsize" : 11.595187,
					"id" : "obj-67",
					"numinlets" : 1,
					"numoutlets" : 2,
					"fontname" : "Arial",
					"outlettype" : [ "float", "bang" ]
				}

			}
, 			{
				"box" : 				{
					"maxclass" : "newobj",
					"text" : "sig~",
					"patching_rect" : [ 870.0, 502.0, 33.0, 20.0 ],
					"fontsize" : 12.0,
					"id" : "obj-68",
					"numinlets" : 1,
					"numoutlets" : 1,
					"fontname" : "Arial",
					"outlettype" : [ "signal" ]
				}

			}
, 			{
				"box" : 				{
					"maxclass" : "newobj",
					"text" : "groove~ POP",
					"patching_rect" : [ 797.0, 547.0, 83.0, 20.0 ],
					"fontsize" : 12.0,
					"id" : "obj-69",
					"numinlets" : 3,
					"numoutlets" : 2,
					"fontname" : "Arial",
					"outlettype" : [ "signal", "signal" ]
				}

			}
, 			{
				"box" : 				{
					"maxclass" : "button",
					"patching_rect" : [ 686.0, 487.0, 20.0, 20.0 ],
					"id" : "obj-62",
					"numinlets" : 1,
					"numoutlets" : 1,
					"outlettype" : [ "bang" ]
				}

			}
, 			{
				"box" : 				{
					"maxclass" : "flonum",
					"patching_rect" : [ 686.0, 513.0, 50.0, 20.0 ],
					"fontsize" : 11.595187,
					"id" : "obj-63",
					"numinlets" : 1,
					"numoutlets" : 2,
					"fontname" : "Arial",
					"outlettype" : [ "float", "bang" ]
				}

			}
, 			{
				"box" : 				{
					"maxclass" : "newobj",
					"text" : "sig~",
					"patching_rect" : [ 759.0, 500.0, 33.0, 20.0 ],
					"fontsize" : 12.0,
					"id" : "obj-64",
					"numinlets" : 1,
					"numoutlets" : 1,
					"fontname" : "Arial",
					"outlettype" : [ "signal" ]
				}

			}
, 			{
				"box" : 				{
					"maxclass" : "newobj",
					"text" : "groove~ CLARINET",
					"patching_rect" : [ 688.0, 593.0, 117.0, 20.0 ],
					"fontsize" : 12.0,
					"id" : "obj-65",
					"numinlets" : 3,
					"numoutlets" : 2,
					"fontname" : "Arial",
					"outlettype" : [ "signal", "signal" ]
				}

			}
, 			{
				"box" : 				{
					"maxclass" : "button",
					"patching_rect" : [ 574.0, 487.0, 20.0, 20.0 ],
					"id" : "obj-41",
					"numinlets" : 1,
					"numoutlets" : 1,
					"outlettype" : [ "bang" ]
				}

			}
, 			{
				"box" : 				{
					"maxclass" : "flonum",
					"patching_rect" : [ 574.0, 513.0, 50.0, 20.0 ],
					"fontsize" : 11.595187,
					"id" : "obj-44",
					"numinlets" : 1,
					"numoutlets" : 2,
					"fontname" : "Arial",
					"outlettype" : [ "float", "bang" ]
				}

			}
, 			{
				"box" : 				{
					"maxclass" : "newobj",
					"text" : "sig~",
					"patching_rect" : [ 647.0, 500.0, 33.0, 20.0 ],
					"fontsize" : 12.0,
					"id" : "obj-45",
					"numinlets" : 1,
					"numoutlets" : 1,
					"fontname" : "Arial",
					"outlettype" : [ "signal" ]
				}

			}
, 			{
				"box" : 				{
					"maxclass" : "newobj",
					"text" : "groove~ GUITAR_CLASSIC",
					"patching_rect" : [ 576.0, 569.0, 161.0, 20.0 ],
					"fontsize" : 12.0,
					"id" : "obj-46",
					"numinlets" : 3,
					"numoutlets" : 2,
					"fontname" : "Arial",
					"outlettype" : [ "signal", "signal" ]
				}

			}
, 			{
				"box" : 				{
					"maxclass" : "button",
					"patching_rect" : [ 461.0, 487.0, 20.0, 20.0 ],
					"id" : "obj-28",
					"numinlets" : 1,
					"numoutlets" : 1,
					"outlettype" : [ "bang" ]
				}

			}
, 			{
				"box" : 				{
					"maxclass" : "flonum",
					"patching_rect" : [ 461.0, 513.0, 50.0, 20.0 ],
					"fontsize" : 11.595187,
					"id" : "obj-30",
					"numinlets" : 1,
					"numoutlets" : 2,
					"fontname" : "Arial",
					"outlettype" : [ "float", "bang" ]
				}

			}
, 			{
				"box" : 				{
					"maxclass" : "newobj",
					"text" : "sig~",
					"patching_rect" : [ 534.0, 500.0, 33.0, 20.0 ],
					"fontsize" : 12.0,
					"id" : "obj-35",
					"numinlets" : 1,
					"numoutlets" : 1,
					"fontname" : "Arial",
					"outlettype" : [ "signal" ]
				}

			}
, 			{
				"box" : 				{
					"maxclass" : "newobj",
					"text" : "groove~ GUITAR_ELEC",
					"patching_rect" : [ 462.0, 547.0, 141.0, 20.0 ],
					"fontsize" : 12.0,
					"id" : "obj-36",
					"numinlets" : 3,
					"numoutlets" : 2,
					"fontname" : "Arial",
					"outlettype" : [ "signal", "signal" ]
				}

			}
, 			{
				"box" : 				{
					"maxclass" : "button",
					"patching_rect" : [ 351.0, 487.0, 20.0, 20.0 ],
					"id" : "obj-18",
					"numinlets" : 1,
					"numoutlets" : 1,
					"outlettype" : [ "bang" ]
				}

			}
, 			{
				"box" : 				{
					"maxclass" : "flonum",
					"patching_rect" : [ 351.0, 513.0, 50.0, 20.0 ],
					"fontsize" : 11.595187,
					"id" : "obj-21",
					"numinlets" : 1,
					"numoutlets" : 2,
					"fontname" : "Arial",
					"outlettype" : [ "float", "bang" ]
				}

			}
, 			{
				"box" : 				{
					"maxclass" : "newobj",
					"text" : "sig~",
					"patching_rect" : [ 424.0, 500.0, 33.0, 20.0 ],
					"fontsize" : 12.0,
					"id" : "obj-23",
					"numinlets" : 1,
					"numoutlets" : 1,
					"fontname" : "Arial",
					"outlettype" : [ "signal" ]
				}

			}
, 			{
				"box" : 				{
					"maxclass" : "newobj",
					"text" : "groove~ CHING",
					"patching_rect" : [ 351.0, 545.0, 96.0, 20.0 ],
					"fontsize" : 12.0,
					"id" : "obj-25",
					"numinlets" : 3,
					"numoutlets" : 2,
					"fontname" : "Arial",
					"outlettype" : [ "signal", "signal" ]
				}

			}
, 			{
				"box" : 				{
					"maxclass" : "button",
					"patching_rect" : [ 242.0, 487.0, 20.0, 20.0 ],
					"id" : "obj-9",
					"numinlets" : 1,
					"numoutlets" : 1,
					"outlettype" : [ "bang" ]
				}

			}
, 			{
				"box" : 				{
					"maxclass" : "flonum",
					"patching_rect" : [ 242.0, 513.0, 50.0, 20.0 ],
					"fontsize" : 11.595187,
					"id" : "obj-11",
					"numinlets" : 1,
					"numoutlets" : 2,
					"fontname" : "Arial",
					"outlettype" : [ "float", "bang" ]
				}

			}
, 			{
				"box" : 				{
					"maxclass" : "newobj",
					"text" : "sig~",
					"patching_rect" : [ 315.0, 500.0, 33.0, 20.0 ],
					"fontsize" : 12.0,
					"id" : "obj-12",
					"numinlets" : 1,
					"numoutlets" : 1,
					"fontname" : "Arial",
					"outlettype" : [ "signal" ]
				}

			}
, 			{
				"box" : 				{
					"maxclass" : "newobj",
					"text" : "groove~ BANJO",
					"patching_rect" : [ 242.0, 545.0, 98.0, 20.0 ],
					"fontsize" : 12.0,
					"id" : "obj-17",
					"numinlets" : 3,
					"numoutlets" : 2,
					"fontname" : "Arial",
					"outlettype" : [ "signal", "signal" ]
				}

			}
, 			{
				"box" : 				{
					"maxclass" : "newobj",
					"text" : "route BUZZ BANJO CHING GUITAR_ELEC GUITAR_CLASSIC CLARINET POP SAX FEMALE TOY_PIANO VIOLA ZAP",
					"patching_rect" : [ 135.0, 400.0, 1235.0, 20.0 ],
					"fontsize" : 12.0,
					"id" : "obj-43",
					"numinlets" : 1,
					"numoutlets" : 13,
					"fontname" : "Arial",
					"outlettype" : [ "", "", "", "", "", "", "", "", "", "", "", "", "" ]
				}

			}
, 			{
				"box" : 				{
					"maxclass" : "button",
					"patching_rect" : [ 134.0, 486.0, 20.0, 20.0 ],
					"id" : "obj-26",
					"numinlets" : 1,
					"numoutlets" : 1,
					"outlettype" : [ "bang" ]
				}

			}
, 			{
				"box" : 				{
					"maxclass" : "flonum",
					"patching_rect" : [ 134.0, 512.0, 50.0, 20.0 ],
					"fontsize" : 11.595187,
					"id" : "obj-27",
					"numinlets" : 1,
					"numoutlets" : 2,
					"fontname" : "Arial",
					"outlettype" : [ "float", "bang" ]
				}

			}
, 			{
				"box" : 				{
					"maxclass" : "newobj",
					"text" : "sig~",
					"patching_rect" : [ 207.0, 499.0, 33.0, 20.0 ],
					"fontsize" : 12.0,
					"id" : "obj-24",
					"numinlets" : 1,
					"numoutlets" : 1,
					"fontname" : "Arial",
					"outlettype" : [ "signal" ]
				}

			}
, 			{
				"box" : 				{
					"maxclass" : "ezdac~",
					"patching_rect" : [ 619.0, 759.0, 45.0, 45.0 ],
					"id" : "obj-22",
					"numinlets" : 2,
					"numoutlets" : 0
				}

			}
, 			{
				"box" : 				{
					"maxclass" : "newobj",
					"text" : "groove~ BUZZ",
					"patching_rect" : [ 134.0, 544.0, 89.0, 20.0 ],
					"fontsize" : 12.0,
					"id" : "obj-20",
					"numinlets" : 3,
					"numoutlets" : 2,
					"fontname" : "Arial",
					"outlettype" : [ "signal", "signal" ]
				}

			}
, 			{
				"box" : 				{
					"maxclass" : "button",
					"patching_rect" : [ 239.0, 996.0, 20.0, 20.0 ],
					"id" : "obj-50",
					"numinlets" : 1,
					"numoutlets" : 1,
					"outlettype" : [ "bang" ]
				}

			}
, 			{
				"box" : 				{
					"maxclass" : "message",
					"text" : "banjo-Eb-hi.wav",
					"patching_rect" : [ 171.0, 850.0, 97.0, 18.0 ],
					"fontsize" : 12.0,
					"id" : "obj-51",
					"numinlets" : 2,
					"numoutlets" : 1,
					"fontname" : "Arial",
					"outlettype" : [ "" ]
				}

			}
, 			{
				"box" : 				{
					"maxclass" : "message",
					"text" : "read",
					"patching_rect" : [ 170.0, 914.0, 35.0, 18.0 ],
					"fontsize" : 12.0,
					"id" : "obj-52",
					"numinlets" : 2,
					"numoutlets" : 1,
					"fontname" : "Arial",
					"outlettype" : [ "" ]
				}

			}
, 			{
				"box" : 				{
					"maxclass" : "newobj",
					"text" : "zl join",
					"patching_rect" : [ 170.0, 942.0, 49.0, 20.0 ],
					"fontsize" : 12.0,
					"id" : "obj-53",
					"numinlets" : 2,
					"numoutlets" : 2,
					"fontname" : "Arial",
					"outlettype" : [ "", "" ]
				}

			}
, 			{
				"box" : 				{
					"maxclass" : "newobj",
					"text" : "buffer~ BANJO",
					"patching_rect" : [ 170.0, 968.0, 92.0, 20.0 ],
					"fontsize" : 12.0,
					"id" : "obj-54",
					"numinlets" : 1,
					"numoutlets" : 2,
					"fontname" : "Arial",
					"outlettype" : [ "float", "bang" ]
				}

			}
, 			{
				"box" : 				{
					"maxclass" : "message",
					"text" : "/trigger",
					"patching_rect" : [ 417.0, 273.0, 48.0, 18.0 ],
					"fontsize" : 12.0,
					"id" : "obj-33",
					"numinlets" : 2,
					"numoutlets" : 1,
					"fontname" : "Arial",
					"outlettype" : [ "" ]
				}

			}
, 			{
				"box" : 				{
					"maxclass" : "newobj",
					"text" : "udpsend localhost 57850",
					"patching_rect" : [ 418.0, 363.0, 144.0, 20.0 ],
					"fontsize" : 12.0,
					"id" : "obj-32",
					"numinlets" : 1,
					"numoutlets" : 0,
					"fontname" : "Arial"
				}

			}
, 			{
				"box" : 				{
					"maxclass" : "newobj",
					"text" : "route /file /trigger",
					"patching_rect" : [ 640.0, 316.0, 98.0, 20.0 ],
					"fontsize" : 11.595187,
					"id" : "obj-37",
					"numinlets" : 1,
					"numoutlets" : 3,
					"fontname" : "Arial",
					"outlettype" : [ "", "", "" ]
				}

			}
, 			{
				"box" : 				{
					"maxclass" : "newobj",
					"text" : "udpreceive 57850",
					"patching_rect" : [ 640.0, 288.0, 106.0, 20.0 ],
					"fontsize" : 12.0,
					"id" : "obj-29",
					"numinlets" : 1,
					"numoutlets" : 1,
					"fontname" : "Arial",
					"outlettype" : [ "" ]
				}

			}
, 			{
				"box" : 				{
					"maxclass" : "button",
					"patching_rect" : [ 116.0, 995.0, 20.0, 20.0 ],
					"id" : "obj-15",
					"numinlets" : 1,
					"numoutlets" : 1,
					"outlettype" : [ "bang" ]
				}

			}
, 			{
				"box" : 				{
					"maxclass" : "message",
					"text" : "buzz.wav",
					"patching_rect" : [ 48.0, 849.0, 61.0, 18.0 ],
					"fontsize" : 12.0,
					"id" : "obj-14",
					"numinlets" : 2,
					"numoutlets" : 1,
					"fontname" : "Arial",
					"outlettype" : [ "" ]
				}

			}
, 			{
				"box" : 				{
					"maxclass" : "message",
					"text" : "read",
					"patching_rect" : [ 47.0, 913.0, 35.0, 18.0 ],
					"fontsize" : 12.0,
					"id" : "obj-13",
					"numinlets" : 2,
					"numoutlets" : 1,
					"fontname" : "Arial",
					"outlettype" : [ "" ]
				}

			}
, 			{
				"box" : 				{
					"maxclass" : "newobj",
					"text" : "zl join",
					"patching_rect" : [ 47.0, 941.0, 49.0, 20.0 ],
					"fontsize" : 12.0,
					"id" : "obj-10",
					"numinlets" : 2,
					"numoutlets" : 2,
					"fontname" : "Arial",
					"outlettype" : [ "", "" ]
				}

			}
, 			{
				"box" : 				{
					"maxclass" : "newobj",
					"text" : "buffer~ BUZZ",
					"patching_rect" : [ 47.0, 967.0, 83.0, 20.0 ],
					"fontsize" : 12.0,
					"id" : "obj-2",
					"numinlets" : 1,
					"numoutlets" : 2,
					"fontname" : "Arial",
					"outlettype" : [ "float", "bang" ]
				}

			}
 ],
		"lines" : [ 			{
				"patchline" : 				{
					"source" : [ "obj-168", 0 ],
					"destination" : [ "obj-32", 0 ],
					"hidden" : 0,
					"midpoints" : [ 536.5, 355.5, 427.5, 355.5 ]
				}

			}
, 			{
				"patchline" : 				{
					"source" : [ "obj-167", 0 ],
					"destination" : [ "obj-32", 0 ],
					"hidden" : 0,
					"midpoints" : [ 536.5, 355.0, 427.5, 355.0 ]
				}

			}
, 			{
				"patchline" : 				{
					"source" : [ "obj-57", 1 ],
					"destination" : [ "obj-166", 0 ],
					"hidden" : 0,
					"midpoints" : [  ]
				}

			}
, 			{
				"patchline" : 				{
					"source" : [ "obj-56", 1 ],
					"destination" : [ "obj-165", 0 ],
					"hidden" : 0,
					"midpoints" : [  ]
				}

			}
, 			{
				"patchline" : 				{
					"source" : [ "obj-55", 1 ],
					"destination" : [ "obj-164", 0 ],
					"hidden" : 0,
					"midpoints" : [  ]
				}

			}
, 			{
				"patchline" : 				{
					"source" : [ "obj-49", 1 ],
					"destination" : [ "obj-163", 0 ],
					"hidden" : 0,
					"midpoints" : [  ]
				}

			}
, 			{
				"patchline" : 				{
					"source" : [ "obj-48", 1 ],
					"destination" : [ "obj-162", 0 ],
					"hidden" : 0,
					"midpoints" : [  ]
				}

			}
, 			{
				"patchline" : 				{
					"source" : [ "obj-47", 1 ],
					"destination" : [ "obj-161", 0 ],
					"hidden" : 0,
					"midpoints" : [  ]
				}

			}
, 			{
				"patchline" : 				{
					"source" : [ "obj-19", 1 ],
					"destination" : [ "obj-160", 0 ],
					"hidden" : 0,
					"midpoints" : [  ]
				}

			}
, 			{
				"patchline" : 				{
					"source" : [ "obj-16", 1 ],
					"destination" : [ "obj-159", 0 ],
					"hidden" : 0,
					"midpoints" : [  ]
				}

			}
, 			{
				"patchline" : 				{
					"source" : [ "obj-8", 1 ],
					"destination" : [ "obj-158", 0 ],
					"hidden" : 0,
					"midpoints" : [  ]
				}

			}
, 			{
				"patchline" : 				{
					"source" : [ "obj-7", 1 ],
					"destination" : [ "obj-157", 0 ],
					"hidden" : 0,
					"midpoints" : [  ]
				}

			}
, 			{
				"patchline" : 				{
					"source" : [ "obj-6", 1 ],
					"destination" : [ "obj-156", 0 ],
					"hidden" : 0,
					"midpoints" : [  ]
				}

			}
, 			{
				"patchline" : 				{
					"source" : [ "obj-5", 1 ],
					"destination" : [ "obj-155", 0 ],
					"hidden" : 0,
					"midpoints" : [  ]
				}

			}
, 			{
				"patchline" : 				{
					"source" : [ "obj-46", 0 ],
					"destination" : [ "obj-16", 0 ],
					"hidden" : 0,
					"midpoints" : [  ]
				}

			}
, 			{
				"patchline" : 				{
					"source" : [ "obj-65", 0 ],
					"destination" : [ "obj-19", 0 ],
					"hidden" : 0,
					"midpoints" : [  ]
				}

			}
, 			{
				"patchline" : 				{
					"source" : [ "obj-69", 0 ],
					"destination" : [ "obj-47", 0 ],
					"hidden" : 0,
					"midpoints" : [  ]
				}

			}
, 			{
				"patchline" : 				{
					"source" : [ "obj-73", 0 ],
					"destination" : [ "obj-48", 0 ],
					"hidden" : 0,
					"midpoints" : [  ]
				}

			}
, 			{
				"patchline" : 				{
					"source" : [ "obj-77", 0 ],
					"destination" : [ "obj-49", 0 ],
					"hidden" : 0,
					"midpoints" : [  ]
				}

			}
, 			{
				"patchline" : 				{
					"source" : [ "obj-81", 0 ],
					"destination" : [ "obj-55", 0 ],
					"hidden" : 0,
					"midpoints" : [  ]
				}

			}
, 			{
				"patchline" : 				{
					"source" : [ "obj-85", 0 ],
					"destination" : [ "obj-56", 0 ],
					"hidden" : 0,
					"midpoints" : [  ]
				}

			}
, 			{
				"patchline" : 				{
					"source" : [ "obj-89", 0 ],
					"destination" : [ "obj-57", 0 ],
					"hidden" : 0,
					"midpoints" : [  ]
				}

			}
, 			{
				"patchline" : 				{
					"source" : [ "obj-56", 0 ],
					"destination" : [ "obj-22", 1 ],
					"hidden" : 0,
					"midpoints" : [ 1255.5, 722.5, 654.5, 722.5 ]
				}

			}
, 			{
				"patchline" : 				{
					"source" : [ "obj-29", 0 ],
					"destination" : [ "obj-37", 0 ],
					"hidden" : 0,
					"midpoints" : [  ]
				}

			}
, 			{
				"patchline" : 				{
					"source" : [ "obj-150", 0 ],
					"destination" : [ "obj-32", 0 ],
					"hidden" : 0,
					"midpoints" : [  ]
				}

			}
, 			{
				"patchline" : 				{
					"source" : [ "obj-4", 0 ],
					"destination" : [ "obj-153", 0 ],
					"hidden" : 0,
					"midpoints" : [ 394.5, 136.0, 425.5, 136.0 ]
				}

			}
, 			{
				"patchline" : 				{
					"source" : [ "obj-40", 0 ],
					"destination" : [ "obj-153", 0 ],
					"hidden" : 0,
					"midpoints" : [ 409.5, 143.5, 425.5, 143.5 ]
				}

			}
, 			{
				"patchline" : 				{
					"source" : [ "obj-152", 0 ],
					"destination" : [ "obj-150", 0 ],
					"hidden" : 0,
					"midpoints" : [  ]
				}

			}
, 			{
				"patchline" : 				{
					"source" : [ "obj-58", 0 ],
					"destination" : [ "obj-153", 0 ],
					"hidden" : 0,
					"midpoints" : [ 424.5, 153.0, 425.5, 153.0 ]
				}

			}
, 			{
				"patchline" : 				{
					"source" : [ "obj-59", 0 ],
					"destination" : [ "obj-153", 0 ],
					"hidden" : 0,
					"midpoints" : [ 439.5, 160.5, 425.5, 160.5 ]
				}

			}
, 			{
				"patchline" : 				{
					"source" : [ "obj-60", 0 ],
					"destination" : [ "obj-153", 0 ],
					"hidden" : 0,
					"midpoints" : [ 454.5, 168.0, 425.5, 168.0 ]
				}

			}
, 			{
				"patchline" : 				{
					"source" : [ "obj-61", 0 ],
					"destination" : [ "obj-153", 0 ],
					"hidden" : 0,
					"midpoints" : [ 469.5, 175.5, 425.5, 175.5 ]
				}

			}
, 			{
				"patchline" : 				{
					"source" : [ "obj-144", 0 ],
					"destination" : [ "obj-153", 0 ],
					"hidden" : 0,
					"midpoints" : [ 484.5, 183.0, 425.5, 183.0 ]
				}

			}
, 			{
				"patchline" : 				{
					"source" : [ "obj-145", 0 ],
					"destination" : [ "obj-153", 0 ],
					"hidden" : 0,
					"midpoints" : [ 499.5, 190.5, 425.5, 190.5 ]
				}

			}
, 			{
				"patchline" : 				{
					"source" : [ "obj-146", 0 ],
					"destination" : [ "obj-153", 0 ],
					"hidden" : 0,
					"midpoints" : [ 514.5, 198.0, 425.5, 198.0 ]
				}

			}
, 			{
				"patchline" : 				{
					"source" : [ "obj-147", 0 ],
					"destination" : [ "obj-153", 0 ],
					"hidden" : 0,
					"midpoints" : [ 529.5, 205.5, 425.5, 205.5 ]
				}

			}
, 			{
				"patchline" : 				{
					"source" : [ "obj-148", 0 ],
					"destination" : [ "obj-153", 0 ],
					"hidden" : 0,
					"midpoints" : [ 544.5, 213.0, 425.5, 213.0 ]
				}

			}
, 			{
				"patchline" : 				{
					"source" : [ "obj-149", 0 ],
					"destination" : [ "obj-153", 0 ],
					"hidden" : 0,
					"midpoints" : [ 559.5, 220.5, 425.5, 220.5 ]
				}

			}
, 			{
				"patchline" : 				{
					"source" : [ "obj-33", 0 ],
					"destination" : [ "obj-152", 0 ],
					"hidden" : 0,
					"midpoints" : [  ]
				}

			}
, 			{
				"patchline" : 				{
					"source" : [ "obj-153", 0 ],
					"destination" : [ "obj-33", 0 ],
					"hidden" : 0,
					"midpoints" : [  ]
				}

			}
, 			{
				"patchline" : 				{
					"source" : [ "obj-153", 1 ],
					"destination" : [ "obj-152", 1 ],
					"hidden" : 0,
					"midpoints" : [ 439.5, 266.5, 498.5, 266.5 ]
				}

			}
, 			{
				"patchline" : 				{
					"source" : [ "obj-6", 0 ],
					"destination" : [ "obj-22", 0 ],
					"hidden" : 0,
					"midpoints" : [ 251.5, 717.5, 628.5, 717.5 ]
				}

			}
, 			{
				"patchline" : 				{
					"source" : [ "obj-17", 0 ],
					"destination" : [ "obj-6", 0 ],
					"hidden" : 0,
					"midpoints" : [  ]
				}

			}
, 			{
				"patchline" : 				{
					"source" : [ "obj-5", 0 ],
					"destination" : [ "obj-22", 0 ],
					"hidden" : 0,
					"midpoints" : [ 143.5, 738.5, 628.5, 738.5 ]
				}

			}
, 			{
				"patchline" : 				{
					"source" : [ "obj-20", 0 ],
					"destination" : [ "obj-5", 0 ],
					"hidden" : 0,
					"midpoints" : [  ]
				}

			}
, 			{
				"patchline" : 				{
					"source" : [ "obj-142", 1 ],
					"destination" : [ "obj-138", 0 ],
					"hidden" : 0,
					"midpoints" : [  ]
				}

			}
, 			{
				"patchline" : 				{
					"source" : [ "obj-141", 0 ],
					"destination" : [ "obj-142", 0 ],
					"hidden" : 0,
					"midpoints" : [  ]
				}

			}
, 			{
				"patchline" : 				{
					"source" : [ "obj-136", 0 ],
					"destination" : [ "obj-137", 0 ],
					"hidden" : 0,
					"midpoints" : [  ]
				}

			}
, 			{
				"patchline" : 				{
					"source" : [ "obj-137", 1 ],
					"destination" : [ "obj-133", 0 ],
					"hidden" : 0,
					"midpoints" : [  ]
				}

			}
, 			{
				"patchline" : 				{
					"source" : [ "obj-131", 0 ],
					"destination" : [ "obj-132", 0 ],
					"hidden" : 0,
					"midpoints" : [  ]
				}

			}
, 			{
				"patchline" : 				{
					"source" : [ "obj-132", 1 ],
					"destination" : [ "obj-128", 0 ],
					"hidden" : 0,
					"midpoints" : [  ]
				}

			}
, 			{
				"patchline" : 				{
					"source" : [ "obj-126", 0 ],
					"destination" : [ "obj-127", 0 ],
					"hidden" : 0,
					"midpoints" : [  ]
				}

			}
, 			{
				"patchline" : 				{
					"source" : [ "obj-127", 1 ],
					"destination" : [ "obj-123", 0 ],
					"hidden" : 0,
					"midpoints" : [  ]
				}

			}
, 			{
				"patchline" : 				{
					"source" : [ "obj-121", 0 ],
					"destination" : [ "obj-122", 0 ],
					"hidden" : 0,
					"midpoints" : [  ]
				}

			}
, 			{
				"patchline" : 				{
					"source" : [ "obj-122", 1 ],
					"destination" : [ "obj-118", 0 ],
					"hidden" : 0,
					"midpoints" : [  ]
				}

			}
, 			{
				"patchline" : 				{
					"source" : [ "obj-116", 0 ],
					"destination" : [ "obj-117", 0 ],
					"hidden" : 0,
					"midpoints" : [  ]
				}

			}
, 			{
				"patchline" : 				{
					"source" : [ "obj-117", 1 ],
					"destination" : [ "obj-113", 0 ],
					"hidden" : 0,
					"midpoints" : [  ]
				}

			}
, 			{
				"patchline" : 				{
					"source" : [ "obj-52", 0 ],
					"destination" : [ "obj-53", 0 ],
					"hidden" : 0,
					"midpoints" : [  ]
				}

			}
, 			{
				"patchline" : 				{
					"source" : [ "obj-51", 0 ],
					"destination" : [ "obj-53", 1 ],
					"hidden" : 0,
					"midpoints" : [ 180.5, 897.5, 209.5, 897.5 ]
				}

			}
, 			{
				"patchline" : 				{
					"source" : [ "obj-51", 0 ],
					"destination" : [ "obj-52", 0 ],
					"hidden" : 0,
					"midpoints" : [  ]
				}

			}
, 			{
				"patchline" : 				{
					"source" : [ "obj-14", 0 ],
					"destination" : [ "obj-13", 0 ],
					"hidden" : 0,
					"midpoints" : [  ]
				}

			}
, 			{
				"patchline" : 				{
					"source" : [ "obj-14", 0 ],
					"destination" : [ "obj-10", 1 ],
					"hidden" : 0,
					"midpoints" : [ 57.5, 896.5, 86.5, 896.5 ]
				}

			}
, 			{
				"patchline" : 				{
					"source" : [ "obj-13", 0 ],
					"destination" : [ "obj-10", 0 ],
					"hidden" : 0,
					"midpoints" : [  ]
				}

			}
, 			{
				"patchline" : 				{
					"source" : [ "obj-26", 0 ],
					"destination" : [ "obj-27", 0 ],
					"hidden" : 0,
					"midpoints" : [  ]
				}

			}
, 			{
				"patchline" : 				{
					"source" : [ "obj-43", 0 ],
					"destination" : [ "obj-26", 0 ],
					"hidden" : 0,
					"midpoints" : [ 144.5, 452.0, 143.5, 452.0 ]
				}

			}
, 			{
				"patchline" : 				{
					"source" : [ "obj-43", 0 ],
					"destination" : [ "obj-24", 0 ],
					"hidden" : 0,
					"midpoints" : [ 144.5, 458.5, 216.5, 458.5 ]
				}

			}
, 			{
				"patchline" : 				{
					"source" : [ "obj-9", 0 ],
					"destination" : [ "obj-11", 0 ],
					"hidden" : 0,
					"midpoints" : [  ]
				}

			}
, 			{
				"patchline" : 				{
					"source" : [ "obj-18", 0 ],
					"destination" : [ "obj-21", 0 ],
					"hidden" : 0,
					"midpoints" : [  ]
				}

			}
, 			{
				"patchline" : 				{
					"source" : [ "obj-28", 0 ],
					"destination" : [ "obj-30", 0 ],
					"hidden" : 0,
					"midpoints" : [  ]
				}

			}
, 			{
				"patchline" : 				{
					"source" : [ "obj-41", 0 ],
					"destination" : [ "obj-44", 0 ],
					"hidden" : 0,
					"midpoints" : [  ]
				}

			}
, 			{
				"patchline" : 				{
					"source" : [ "obj-62", 0 ],
					"destination" : [ "obj-63", 0 ],
					"hidden" : 0,
					"midpoints" : [  ]
				}

			}
, 			{
				"patchline" : 				{
					"source" : [ "obj-66", 0 ],
					"destination" : [ "obj-67", 0 ],
					"hidden" : 0,
					"midpoints" : [  ]
				}

			}
, 			{
				"patchline" : 				{
					"source" : [ "obj-70", 0 ],
					"destination" : [ "obj-71", 0 ],
					"hidden" : 0,
					"midpoints" : [  ]
				}

			}
, 			{
				"patchline" : 				{
					"source" : [ "obj-74", 0 ],
					"destination" : [ "obj-75", 0 ],
					"hidden" : 0,
					"midpoints" : [  ]
				}

			}
, 			{
				"patchline" : 				{
					"source" : [ "obj-78", 0 ],
					"destination" : [ "obj-79", 0 ],
					"hidden" : 0,
					"midpoints" : [  ]
				}

			}
, 			{
				"patchline" : 				{
					"source" : [ "obj-82", 0 ],
					"destination" : [ "obj-83", 0 ],
					"hidden" : 0,
					"midpoints" : [  ]
				}

			}
, 			{
				"patchline" : 				{
					"source" : [ "obj-86", 0 ],
					"destination" : [ "obj-87", 0 ],
					"hidden" : 0,
					"midpoints" : [  ]
				}

			}
, 			{
				"patchline" : 				{
					"source" : [ "obj-43", 1 ],
					"destination" : [ "obj-9", 0 ],
					"hidden" : 0,
					"midpoints" : [ 245.833328, 452.5, 251.5, 452.5 ]
				}

			}
, 			{
				"patchline" : 				{
					"source" : [ "obj-43", 1 ],
					"destination" : [ "obj-12", 0 ],
					"hidden" : 0,
					"midpoints" : [ 245.833328, 459.0, 324.5, 459.0 ]
				}

			}
, 			{
				"patchline" : 				{
					"source" : [ "obj-43", 2 ],
					"destination" : [ "obj-18", 0 ],
					"hidden" : 0,
					"midpoints" : [ 347.166656, 452.5, 360.5, 452.5 ]
				}

			}
, 			{
				"patchline" : 				{
					"source" : [ "obj-43", 2 ],
					"destination" : [ "obj-23", 0 ],
					"hidden" : 0,
					"midpoints" : [ 347.166656, 459.0, 433.5, 459.0 ]
				}

			}
, 			{
				"patchline" : 				{
					"source" : [ "obj-43", 3 ],
					"destination" : [ "obj-28", 0 ],
					"hidden" : 0,
					"midpoints" : [ 448.5, 452.5, 470.5, 452.5 ]
				}

			}
, 			{
				"patchline" : 				{
					"source" : [ "obj-43", 3 ],
					"destination" : [ "obj-35", 0 ],
					"hidden" : 0,
					"midpoints" : [ 448.5, 459.0, 543.5, 459.0 ]
				}

			}
, 			{
				"patchline" : 				{
					"source" : [ "obj-43", 4 ],
					"destination" : [ "obj-41", 0 ],
					"hidden" : 0,
					"midpoints" : [ 549.833313, 452.5, 583.5, 452.5 ]
				}

			}
, 			{
				"patchline" : 				{
					"source" : [ "obj-43", 4 ],
					"destination" : [ "obj-45", 0 ],
					"hidden" : 0,
					"midpoints" : [ 549.833313, 459.0, 656.5, 459.0 ]
				}

			}
, 			{
				"patchline" : 				{
					"source" : [ "obj-43", 5 ],
					"destination" : [ "obj-62", 0 ],
					"hidden" : 0,
					"midpoints" : [ 651.166687, 452.5, 695.5, 452.5 ]
				}

			}
, 			{
				"patchline" : 				{
					"source" : [ "obj-43", 5 ],
					"destination" : [ "obj-64", 0 ],
					"hidden" : 0,
					"midpoints" : [ 651.166687, 459.5, 768.5, 459.5 ]
				}

			}
, 			{
				"patchline" : 				{
					"source" : [ "obj-43", 6 ],
					"destination" : [ "obj-66", 0 ],
					"hidden" : 0,
					"midpoints" : [ 752.5, 454.0, 806.5, 454.0 ]
				}

			}
, 			{
				"patchline" : 				{
					"source" : [ "obj-43", 6 ],
					"destination" : [ "obj-68", 0 ],
					"hidden" : 0,
					"midpoints" : [ 752.5, 460.5, 879.5, 460.5 ]
				}

			}
, 			{
				"patchline" : 				{
					"source" : [ "obj-43", 7 ],
					"destination" : [ "obj-70", 0 ],
					"hidden" : 0,
					"midpoints" : [ 853.833313, 455.5, 919.5, 455.5 ]
				}

			}
, 			{
				"patchline" : 				{
					"source" : [ "obj-43", 7 ],
					"destination" : [ "obj-72", 0 ],
					"hidden" : 0,
					"midpoints" : [ 853.833313, 462.0, 992.5, 462.0 ]
				}

			}
, 			{
				"patchline" : 				{
					"source" : [ "obj-43", 8 ],
					"destination" : [ "obj-74", 0 ],
					"hidden" : 0,
					"midpoints" : [ 955.166687, 455.5, 1034.5, 455.5 ]
				}

			}
, 			{
				"patchline" : 				{
					"source" : [ "obj-43", 8 ],
					"destination" : [ "obj-76", 0 ],
					"hidden" : 0,
					"midpoints" : [ 955.166687, 462.0, 1107.5, 462.0 ]
				}

			}
, 			{
				"patchline" : 				{
					"source" : [ "obj-43", 9 ],
					"destination" : [ "obj-78", 0 ],
					"hidden" : 0,
					"midpoints" : [ 1056.5, 456.0, 1147.5, 456.0 ]
				}

			}
, 			{
				"patchline" : 				{
					"source" : [ "obj-43", 9 ],
					"destination" : [ "obj-80", 0 ],
					"hidden" : 0,
					"midpoints" : [ 1056.5, 462.5, 1220.5, 462.5 ]
				}

			}
, 			{
				"patchline" : 				{
					"source" : [ "obj-43", 10 ],
					"destination" : [ "obj-82", 0 ],
					"hidden" : 0,
					"midpoints" : [ 1157.833374, 456.5, 1256.5, 456.5 ]
				}

			}
, 			{
				"patchline" : 				{
					"source" : [ "obj-43", 10 ],
					"destination" : [ "obj-84", 0 ],
					"hidden" : 0,
					"midpoints" : [ 1157.833374, 463.0, 1329.5, 463.0 ]
				}

			}
, 			{
				"patchline" : 				{
					"source" : [ "obj-43", 11 ],
					"destination" : [ "obj-86", 0 ],
					"hidden" : 0,
					"midpoints" : [ 1259.166626, 456.5, 1366.5, 456.5 ]
				}

			}
, 			{
				"patchline" : 				{
					"source" : [ "obj-43", 11 ],
					"destination" : [ "obj-88", 0 ],
					"hidden" : 0,
					"midpoints" : [ 1259.166626, 463.0, 1439.5, 463.0 ]
				}

			}
, 			{
				"patchline" : 				{
					"source" : [ "obj-90", 0 ],
					"destination" : [ "obj-43", 0 ],
					"hidden" : 0,
					"midpoints" : [  ]
				}

			}
, 			{
				"patchline" : 				{
					"source" : [ "obj-92", 0 ],
					"destination" : [ "obj-14", 0 ],
					"hidden" : 0,
					"midpoints" : [  ]
				}

			}
, 			{
				"patchline" : 				{
					"source" : [ "obj-92", 1 ],
					"destination" : [ "obj-51", 0 ],
					"hidden" : 0,
					"midpoints" : [  ]
				}

			}
, 			{
				"patchline" : 				{
					"source" : [ "obj-94", 0 ],
					"destination" : [ "obj-95", 0 ],
					"hidden" : 0,
					"midpoints" : [  ]
				}

			}
, 			{
				"patchline" : 				{
					"source" : [ "obj-94", 0 ],
					"destination" : [ "obj-96", 1 ],
					"hidden" : 0,
					"midpoints" : [ 307.5, 899.5, 336.5, 899.5 ]
				}

			}
, 			{
				"patchline" : 				{
					"source" : [ "obj-95", 0 ],
					"destination" : [ "obj-96", 0 ],
					"hidden" : 0,
					"midpoints" : [  ]
				}

			}
, 			{
				"patchline" : 				{
					"source" : [ "obj-92", 2 ],
					"destination" : [ "obj-94", 0 ],
					"hidden" : 0,
					"midpoints" : [  ]
				}

			}
, 			{
				"patchline" : 				{
					"source" : [ "obj-100", 0 ],
					"destination" : [ "obj-101", 0 ],
					"hidden" : 0,
					"midpoints" : [  ]
				}

			}
, 			{
				"patchline" : 				{
					"source" : [ "obj-99", 0 ],
					"destination" : [ "obj-101", 1 ],
					"hidden" : 0,
					"midpoints" : [ 432.5, 900.5, 463.5, 900.5 ]
				}

			}
, 			{
				"patchline" : 				{
					"source" : [ "obj-99", 0 ],
					"destination" : [ "obj-100", 0 ],
					"hidden" : 0,
					"midpoints" : [  ]
				}

			}
, 			{
				"patchline" : 				{
					"source" : [ "obj-92", 3 ],
					"destination" : [ "obj-99", 0 ],
					"hidden" : 0,
					"midpoints" : [  ]
				}

			}
, 			{
				"patchline" : 				{
					"source" : [ "obj-104", 0 ],
					"destination" : [ "obj-105", 0 ],
					"hidden" : 0,
					"midpoints" : [  ]
				}

			}
, 			{
				"patchline" : 				{
					"source" : [ "obj-104", 0 ],
					"destination" : [ "obj-106", 1 ],
					"hidden" : 0,
					"midpoints" : [ 559.5, 900.5, 588.5, 900.5 ]
				}

			}
, 			{
				"patchline" : 				{
					"source" : [ "obj-105", 0 ],
					"destination" : [ "obj-106", 0 ],
					"hidden" : 0,
					"midpoints" : [  ]
				}

			}
, 			{
				"patchline" : 				{
					"source" : [ "obj-92", 4 ],
					"destination" : [ "obj-104", 0 ],
					"hidden" : 0,
					"midpoints" : [  ]
				}

			}
, 			{
				"patchline" : 				{
					"source" : [ "obj-110", 0 ],
					"destination" : [ "obj-111", 0 ],
					"hidden" : 0,
					"midpoints" : [  ]
				}

			}
, 			{
				"patchline" : 				{
					"source" : [ "obj-109", 0 ],
					"destination" : [ "obj-111", 1 ],
					"hidden" : 0,
					"midpoints" : [ 684.5, 902.5, 714.5, 902.5 ]
				}

			}
, 			{
				"patchline" : 				{
					"source" : [ "obj-109", 0 ],
					"destination" : [ "obj-110", 0 ],
					"hidden" : 0,
					"midpoints" : [  ]
				}

			}
, 			{
				"patchline" : 				{
					"source" : [ "obj-92", 5 ],
					"destination" : [ "obj-109", 0 ],
					"hidden" : 0,
					"midpoints" : [  ]
				}

			}
, 			{
				"patchline" : 				{
					"source" : [ "obj-114", 0 ],
					"destination" : [ "obj-115", 0 ],
					"hidden" : 0,
					"midpoints" : [  ]
				}

			}
, 			{
				"patchline" : 				{
					"source" : [ "obj-114", 0 ],
					"destination" : [ "obj-116", 1 ],
					"hidden" : 0,
					"midpoints" : [ 809.5, 905.5, 838.5, 905.5 ]
				}

			}
, 			{
				"patchline" : 				{
					"source" : [ "obj-115", 0 ],
					"destination" : [ "obj-116", 0 ],
					"hidden" : 0,
					"midpoints" : [  ]
				}

			}
, 			{
				"patchline" : 				{
					"source" : [ "obj-92", 6 ],
					"destination" : [ "obj-114", 0 ],
					"hidden" : 0,
					"midpoints" : [  ]
				}

			}
, 			{
				"patchline" : 				{
					"source" : [ "obj-119", 0 ],
					"destination" : [ "obj-120", 0 ],
					"hidden" : 0,
					"midpoints" : [  ]
				}

			}
, 			{
				"patchline" : 				{
					"source" : [ "obj-119", 0 ],
					"destination" : [ "obj-121", 1 ],
					"hidden" : 0,
					"midpoints" : [ 935.5, 904.5, 964.5, 904.5 ]
				}

			}
, 			{
				"patchline" : 				{
					"source" : [ "obj-120", 0 ],
					"destination" : [ "obj-121", 0 ],
					"hidden" : 0,
					"midpoints" : [  ]
				}

			}
, 			{
				"patchline" : 				{
					"source" : [ "obj-92", 7 ],
					"destination" : [ "obj-119", 0 ],
					"hidden" : 0,
					"midpoints" : [  ]
				}

			}
, 			{
				"patchline" : 				{
					"source" : [ "obj-124", 0 ],
					"destination" : [ "obj-125", 0 ],
					"hidden" : 0,
					"midpoints" : [  ]
				}

			}
, 			{
				"patchline" : 				{
					"source" : [ "obj-124", 0 ],
					"destination" : [ "obj-126", 1 ],
					"hidden" : 0,
					"midpoints" : [ 1058.5, 908.5, 1087.5, 908.5 ]
				}

			}
, 			{
				"patchline" : 				{
					"source" : [ "obj-125", 0 ],
					"destination" : [ "obj-126", 0 ],
					"hidden" : 0,
					"midpoints" : [  ]
				}

			}
, 			{
				"patchline" : 				{
					"source" : [ "obj-92", 8 ],
					"destination" : [ "obj-124", 0 ],
					"hidden" : 0,
					"midpoints" : [  ]
				}

			}
, 			{
				"patchline" : 				{
					"source" : [ "obj-129", 0 ],
					"destination" : [ "obj-130", 0 ],
					"hidden" : 0,
					"midpoints" : [  ]
				}

			}
, 			{
				"patchline" : 				{
					"source" : [ "obj-129", 0 ],
					"destination" : [ "obj-131", 1 ],
					"hidden" : 0,
					"midpoints" : [ 1185.5, 904.5, 1214.5, 904.5 ]
				}

			}
, 			{
				"patchline" : 				{
					"source" : [ "obj-130", 0 ],
					"destination" : [ "obj-131", 0 ],
					"hidden" : 0,
					"midpoints" : [  ]
				}

			}
, 			{
				"patchline" : 				{
					"source" : [ "obj-92", 9 ],
					"destination" : [ "obj-129", 0 ],
					"hidden" : 0,
					"midpoints" : [  ]
				}

			}
, 			{
				"patchline" : 				{
					"source" : [ "obj-134", 0 ],
					"destination" : [ "obj-135", 0 ],
					"hidden" : 0,
					"midpoints" : [  ]
				}

			}
, 			{
				"patchline" : 				{
					"source" : [ "obj-134", 0 ],
					"destination" : [ "obj-136", 1 ],
					"hidden" : 0,
					"midpoints" : [ 1311.5, 900.5, 1340.5, 900.5 ]
				}

			}
, 			{
				"patchline" : 				{
					"source" : [ "obj-135", 0 ],
					"destination" : [ "obj-136", 0 ],
					"hidden" : 0,
					"midpoints" : [  ]
				}

			}
, 			{
				"patchline" : 				{
					"source" : [ "obj-92", 10 ],
					"destination" : [ "obj-134", 0 ],
					"hidden" : 0,
					"midpoints" : [  ]
				}

			}
, 			{
				"patchline" : 				{
					"source" : [ "obj-140", 0 ],
					"destination" : [ "obj-141", 0 ],
					"hidden" : 0,
					"midpoints" : [  ]
				}

			}
, 			{
				"patchline" : 				{
					"source" : [ "obj-139", 0 ],
					"destination" : [ "obj-141", 1 ],
					"hidden" : 0,
					"midpoints" : [ 1437.5, 900.5, 1466.5, 900.5 ]
				}

			}
, 			{
				"patchline" : 				{
					"source" : [ "obj-139", 0 ],
					"destination" : [ "obj-140", 0 ],
					"hidden" : 0,
					"midpoints" : [  ]
				}

			}
, 			{
				"patchline" : 				{
					"source" : [ "obj-92", 11 ],
					"destination" : [ "obj-139", 0 ],
					"hidden" : 0,
					"midpoints" : [  ]
				}

			}
, 			{
				"patchline" : 				{
					"source" : [ "obj-143", 0 ],
					"destination" : [ "obj-92", 0 ],
					"hidden" : 0,
					"midpoints" : [  ]
				}

			}
, 			{
				"patchline" : 				{
					"source" : [ "obj-10", 0 ],
					"destination" : [ "obj-2", 0 ],
					"hidden" : 0,
					"midpoints" : [  ]
				}

			}
, 			{
				"patchline" : 				{
					"source" : [ "obj-2", 1 ],
					"destination" : [ "obj-15", 0 ],
					"hidden" : 0,
					"midpoints" : [  ]
				}

			}
, 			{
				"patchline" : 				{
					"source" : [ "obj-53", 0 ],
					"destination" : [ "obj-54", 0 ],
					"hidden" : 0,
					"midpoints" : [  ]
				}

			}
, 			{
				"patchline" : 				{
					"source" : [ "obj-54", 1 ],
					"destination" : [ "obj-50", 0 ],
					"hidden" : 0,
					"midpoints" : [  ]
				}

			}
, 			{
				"patchline" : 				{
					"source" : [ "obj-96", 0 ],
					"destination" : [ "obj-97", 0 ],
					"hidden" : 0,
					"midpoints" : [  ]
				}

			}
, 			{
				"patchline" : 				{
					"source" : [ "obj-97", 1 ],
					"destination" : [ "obj-93", 0 ],
					"hidden" : 0,
					"midpoints" : [  ]
				}

			}
, 			{
				"patchline" : 				{
					"source" : [ "obj-102", 1 ],
					"destination" : [ "obj-98", 0 ],
					"hidden" : 0,
					"midpoints" : [  ]
				}

			}
, 			{
				"patchline" : 				{
					"source" : [ "obj-101", 0 ],
					"destination" : [ "obj-102", 0 ],
					"hidden" : 0,
					"midpoints" : [  ]
				}

			}
, 			{
				"patchline" : 				{
					"source" : [ "obj-107", 1 ],
					"destination" : [ "obj-103", 0 ],
					"hidden" : 0,
					"midpoints" : [  ]
				}

			}
, 			{
				"patchline" : 				{
					"source" : [ "obj-106", 0 ],
					"destination" : [ "obj-107", 0 ],
					"hidden" : 0,
					"midpoints" : [  ]
				}

			}
, 			{
				"patchline" : 				{
					"source" : [ "obj-112", 1 ],
					"destination" : [ "obj-108", 0 ],
					"hidden" : 0,
					"midpoints" : [  ]
				}

			}
, 			{
				"patchline" : 				{
					"source" : [ "obj-111", 0 ],
					"destination" : [ "obj-112", 0 ],
					"hidden" : 0,
					"midpoints" : [  ]
				}

			}
, 			{
				"patchline" : 				{
					"source" : [ "obj-24", 0 ],
					"destination" : [ "obj-20", 0 ],
					"hidden" : 0,
					"midpoints" : [ 216.5, 538.0, 143.5, 538.0 ]
				}

			}
, 			{
				"patchline" : 				{
					"source" : [ "obj-27", 0 ],
					"destination" : [ "obj-20", 0 ],
					"hidden" : 0,
					"midpoints" : [  ]
				}

			}
, 			{
				"patchline" : 				{
					"source" : [ "obj-12", 0 ],
					"destination" : [ "obj-17", 0 ],
					"hidden" : 0,
					"midpoints" : [ 324.5, 539.0, 251.5, 539.0 ]
				}

			}
, 			{
				"patchline" : 				{
					"source" : [ "obj-11", 0 ],
					"destination" : [ "obj-17", 0 ],
					"hidden" : 0,
					"midpoints" : [  ]
				}

			}
, 			{
				"patchline" : 				{
					"source" : [ "obj-23", 0 ],
					"destination" : [ "obj-25", 0 ],
					"hidden" : 0,
					"midpoints" : [ 433.5, 539.0, 360.5, 539.0 ]
				}

			}
, 			{
				"patchline" : 				{
					"source" : [ "obj-21", 0 ],
					"destination" : [ "obj-25", 0 ],
					"hidden" : 0,
					"midpoints" : [  ]
				}

			}
, 			{
				"patchline" : 				{
					"source" : [ "obj-30", 0 ],
					"destination" : [ "obj-36", 0 ],
					"hidden" : 0,
					"midpoints" : [  ]
				}

			}
, 			{
				"patchline" : 				{
					"source" : [ "obj-35", 0 ],
					"destination" : [ "obj-36", 0 ],
					"hidden" : 0,
					"midpoints" : [ 543.5, 539.0, 471.5, 539.0 ]
				}

			}
, 			{
				"patchline" : 				{
					"source" : [ "obj-45", 0 ],
					"destination" : [ "obj-46", 0 ],
					"hidden" : 0,
					"midpoints" : [ 656.5, 539.0, 585.5, 539.0 ]
				}

			}
, 			{
				"patchline" : 				{
					"source" : [ "obj-44", 0 ],
					"destination" : [ "obj-46", 0 ],
					"hidden" : 0,
					"midpoints" : [  ]
				}

			}
, 			{
				"patchline" : 				{
					"source" : [ "obj-63", 0 ],
					"destination" : [ "obj-65", 0 ],
					"hidden" : 0,
					"midpoints" : [  ]
				}

			}
, 			{
				"patchline" : 				{
					"source" : [ "obj-64", 0 ],
					"destination" : [ "obj-65", 0 ],
					"hidden" : 0,
					"midpoints" : [ 768.5, 539.0, 697.5, 539.0 ]
				}

			}
, 			{
				"patchline" : 				{
					"source" : [ "obj-37", 1 ],
					"destination" : [ "obj-91", 0 ],
					"hidden" : 0,
					"midpoints" : [  ]
				}

			}
, 			{
				"patchline" : 				{
					"source" : [ "obj-68", 0 ],
					"destination" : [ "obj-69", 0 ],
					"hidden" : 0,
					"midpoints" : [ 879.5, 541.0, 806.5, 541.0 ]
				}

			}
, 			{
				"patchline" : 				{
					"source" : [ "obj-67", 0 ],
					"destination" : [ "obj-69", 0 ],
					"hidden" : 0,
					"midpoints" : [  ]
				}

			}
, 			{
				"patchline" : 				{
					"source" : [ "obj-71", 0 ],
					"destination" : [ "obj-73", 0 ],
					"hidden" : 0,
					"midpoints" : [  ]
				}

			}
, 			{
				"patchline" : 				{
					"source" : [ "obj-72", 0 ],
					"destination" : [ "obj-73", 0 ],
					"hidden" : 0,
					"midpoints" : [ 992.5, 544.0, 919.5, 544.0 ]
				}

			}
, 			{
				"patchline" : 				{
					"source" : [ "obj-75", 0 ],
					"destination" : [ "obj-77", 0 ],
					"hidden" : 0,
					"midpoints" : [  ]
				}

			}
, 			{
				"patchline" : 				{
					"source" : [ "obj-76", 0 ],
					"destination" : [ "obj-77", 0 ],
					"hidden" : 0,
					"midpoints" : [ 1107.5, 544.0, 1034.5, 544.0 ]
				}

			}
, 			{
				"patchline" : 				{
					"source" : [ "obj-80", 0 ],
					"destination" : [ "obj-81", 0 ],
					"hidden" : 0,
					"midpoints" : [ 1220.5, 545.0, 1147.5, 545.0 ]
				}

			}
, 			{
				"patchline" : 				{
					"source" : [ "obj-79", 0 ],
					"destination" : [ "obj-81", 0 ],
					"hidden" : 0,
					"midpoints" : [  ]
				}

			}
, 			{
				"patchline" : 				{
					"source" : [ "obj-84", 0 ],
					"destination" : [ "obj-85", 0 ],
					"hidden" : 0,
					"midpoints" : [ 1329.5, 546.0, 1256.5, 546.0 ]
				}

			}
, 			{
				"patchline" : 				{
					"source" : [ "obj-83", 0 ],
					"destination" : [ "obj-85", 0 ],
					"hidden" : 0,
					"midpoints" : [  ]
				}

			}
, 			{
				"patchline" : 				{
					"source" : [ "obj-88", 0 ],
					"destination" : [ "obj-89", 0 ],
					"hidden" : 0,
					"midpoints" : [ 1439.5, 546.0, 1366.5, 546.0 ]
				}

			}
, 			{
				"patchline" : 				{
					"source" : [ "obj-87", 0 ],
					"destination" : [ "obj-89", 0 ],
					"hidden" : 0,
					"midpoints" : [  ]
				}

			}
, 			{
				"patchline" : 				{
					"source" : [ "obj-25", 0 ],
					"destination" : [ "obj-7", 0 ],
					"hidden" : 0,
					"midpoints" : [  ]
				}

			}
, 			{
				"patchline" : 				{
					"source" : [ "obj-7", 0 ],
					"destination" : [ "obj-22", 0 ],
					"hidden" : 0,
					"midpoints" : [ 353.5, 717.5, 628.5, 717.5 ]
				}

			}
, 			{
				"patchline" : 				{
					"source" : [ "obj-36", 0 ],
					"destination" : [ "obj-8", 0 ],
					"hidden" : 0,
					"midpoints" : [  ]
				}

			}
, 			{
				"patchline" : 				{
					"source" : [ "obj-8", 0 ],
					"destination" : [ "obj-22", 0 ],
					"hidden" : 0,
					"midpoints" : [ 471.5, 717.5, 628.5, 717.5 ]
				}

			}
, 			{
				"patchline" : 				{
					"source" : [ "obj-16", 0 ],
					"destination" : [ "obj-22", 0 ],
					"hidden" : 0,
					"midpoints" : [ 586.5, 723.0, 628.5, 723.0 ]
				}

			}
, 			{
				"patchline" : 				{
					"source" : [ "obj-47", 0 ],
					"destination" : [ "obj-22", 1 ],
					"hidden" : 0,
					"midpoints" : [ 813.5, 725.0, 654.5, 725.0 ]
				}

			}
, 			{
				"patchline" : 				{
					"source" : [ "obj-48", 0 ],
					"destination" : [ "obj-22", 1 ],
					"hidden" : 0,
					"midpoints" : [ 921.5, 725.5, 654.5, 725.5 ]
				}

			}
, 			{
				"patchline" : 				{
					"source" : [ "obj-49", 0 ],
					"destination" : [ "obj-22", 1 ],
					"hidden" : 0,
					"midpoints" : [ 1033.5, 726.0, 654.5, 726.0 ]
				}

			}
, 			{
				"patchline" : 				{
					"source" : [ "obj-55", 0 ],
					"destination" : [ "obj-22", 1 ],
					"hidden" : 0,
					"midpoints" : [ 1151.5, 726.0, 654.5, 726.0 ]
				}

			}
, 			{
				"patchline" : 				{
					"source" : [ "obj-57", 0 ],
					"destination" : [ "obj-22", 1 ],
					"hidden" : 0,
					"midpoints" : [ 1366.5, 725.0, 654.5, 725.0 ]
				}

			}
, 			{
				"patchline" : 				{
					"source" : [ "obj-19", 0 ],
					"destination" : [ "obj-22", 0 ],
					"hidden" : 0,
					"midpoints" : [  ]
				}

			}
 ]
	}

}
