{
	"patcher" : 	{
		"fileversion" : 1,
		"rect" : [ 0.0, 44.0, 1680.0, 972.0 ],
		"bglocked" : 0,
		"defrect" : [ 0.0, 44.0, 1680.0, 972.0 ],
		"openrect" : [ 0.0, 0.0, 0.0, 0.0 ],
		"openinpresentation" : 0,
		"default_fontsize" : 12.0,
		"default_fontface" : 0,
		"default_fontname" : "Arial",
		"gridonopen" : 0,
		"gridsize" : [ 15.0, 15.0 ],
		"gridsnaponopen" : 0,
		"toolbarvisible" : 1,
		"boxanimatetime" : 200,
		"imprint" : 0,
		"boxes" : [ 			{
				"box" : 				{
					"maxclass" : "gain~",
					"numinlets" : 2,
					"patching_rect" : [ 1701.0, 460.0, 21.0, 71.0 ],
					"numoutlets" : 2,
					"id" : "obj-57",
					"outlettype" : [ "signal", "int" ]
				}

			}
, 			{
				"box" : 				{
					"maxclass" : "gain~",
					"numinlets" : 2,
					"patching_rect" : [ 1591.0, 456.0, 21.0, 71.0 ],
					"numoutlets" : 2,
					"id" : "obj-56",
					"outlettype" : [ "signal", "int" ]
				}

			}
, 			{
				"box" : 				{
					"maxclass" : "gain~",
					"numinlets" : 2,
					"patching_rect" : [ 1486.0, 460.0, 21.0, 71.0 ],
					"numoutlets" : 2,
					"id" : "obj-55",
					"outlettype" : [ "signal", "int" ]
				}

			}
, 			{
				"box" : 				{
					"maxclass" : "gain~",
					"numinlets" : 2,
					"patching_rect" : [ 1368.0, 460.0, 21.0, 71.0 ],
					"numoutlets" : 2,
					"id" : "obj-49",
					"outlettype" : [ "signal", "int" ]
				}

			}
, 			{
				"box" : 				{
					"maxclass" : "gain~",
					"numinlets" : 2,
					"patching_rect" : [ 1256.0, 459.0, 21.0, 71.0 ],
					"numoutlets" : 2,
					"id" : "obj-48",
					"outlettype" : [ "signal", "int" ]
				}

			}
, 			{
				"box" : 				{
					"maxclass" : "gain~",
					"numinlets" : 2,
					"patching_rect" : [ 1148.0, 458.0, 21.0, 71.0 ],
					"numoutlets" : 2,
					"id" : "obj-47",
					"outlettype" : [ "signal", "int" ]
				}

			}
, 			{
				"box" : 				{
					"maxclass" : "gain~",
					"numinlets" : 2,
					"patching_rect" : [ 1031.0, 456.0, 21.0, 71.0 ],
					"numoutlets" : 2,
					"id" : "obj-19",
					"outlettype" : [ "signal", "int" ]
				}

			}
, 			{
				"box" : 				{
					"maxclass" : "gain~",
					"numinlets" : 2,
					"patching_rect" : [ 921.0, 454.0, 21.0, 71.0 ],
					"numoutlets" : 2,
					"id" : "obj-16",
					"outlettype" : [ "signal", "int" ]
				}

			}
, 			{
				"box" : 				{
					"maxclass" : "gain~",
					"numinlets" : 2,
					"patching_rect" : [ 808.0, 453.0, 21.0, 71.0 ],
					"numoutlets" : 2,
					"id" : "obj-8",
					"outlettype" : [ "signal", "int" ]
				}

			}
, 			{
				"box" : 				{
					"maxclass" : "gain~",
					"numinlets" : 2,
					"patching_rect" : [ 692.0, 453.0, 21.0, 71.0 ],
					"numoutlets" : 2,
					"id" : "obj-7",
					"outlettype" : [ "signal", "int" ]
				}

			}
, 			{
				"box" : 				{
					"maxclass" : "gain~",
					"numinlets" : 2,
					"patching_rect" : [ 586.0, 453.0, 21.0, 71.0 ],
					"numoutlets" : 2,
					"id" : "obj-6",
					"outlettype" : [ "signal", "int" ]
				}

			}
, 			{
				"box" : 				{
					"maxclass" : "gain~",
					"numinlets" : 2,
					"patching_rect" : [ 478.0, 453.0, 21.0, 71.0 ],
					"numoutlets" : 2,
					"id" : "obj-5",
					"outlettype" : [ "signal", "int" ]
				}

			}
, 			{
				"box" : 				{
					"maxclass" : "newobj",
					"text" : "dac~",
					"numinlets" : 2,
					"patching_rect" : [ 393.0, 157.0, 37.0, 20.0 ],
					"numoutlets" : 0,
					"id" : "obj-3",
					"fontname" : "Arial",
					"fontsize" : 12.0
				}

			}
, 			{
				"box" : 				{
					"maxclass" : "newobj",
					"text" : "loadbang",
					"numinlets" : 1,
					"patching_rect" : [ 211.0, 625.0, 60.0, 20.0 ],
					"numoutlets" : 1,
					"id" : "obj-143",
					"fontname" : "Arial",
					"outlettype" : [ "bang" ],
					"fontsize" : 12.0
				}

			}
, 			{
				"box" : 				{
					"maxclass" : "button",
					"numinlets" : 1,
					"patching_rect" : [ 1659.0, 837.0, 20.0, 20.0 ],
					"numoutlets" : 1,
					"id" : "obj-138",
					"outlettype" : [ "bang" ]
				}

			}
, 			{
				"box" : 				{
					"maxclass" : "message",
					"text" : "zap.wav",
					"numinlets" : 2,
					"patching_rect" : [ 1591.0, 691.0, 55.0, 18.0 ],
					"numoutlets" : 1,
					"id" : "obj-139",
					"fontname" : "Arial",
					"outlettype" : [ "" ],
					"fontsize" : 12.0
				}

			}
, 			{
				"box" : 				{
					"maxclass" : "message",
					"text" : "read",
					"numinlets" : 2,
					"patching_rect" : [ 1590.0, 755.0, 35.0, 18.0 ],
					"numoutlets" : 1,
					"id" : "obj-140",
					"fontname" : "Arial",
					"outlettype" : [ "" ],
					"fontsize" : 12.0
				}

			}
, 			{
				"box" : 				{
					"maxclass" : "newobj",
					"text" : "zl join",
					"numinlets" : 2,
					"patching_rect" : [ 1590.0, 783.0, 49.0, 20.0 ],
					"numoutlets" : 2,
					"id" : "obj-141",
					"fontname" : "Arial",
					"outlettype" : [ "", "" ],
					"fontsize" : 12.0
				}

			}
, 			{
				"box" : 				{
					"maxclass" : "newobj",
					"text" : "buffer~ ZAP",
					"numinlets" : 1,
					"patching_rect" : [ 1590.0, 809.0, 75.0, 20.0 ],
					"numoutlets" : 2,
					"id" : "obj-142",
					"fontname" : "Arial",
					"outlettype" : [ "float", "bang" ],
					"fontsize" : 12.0
				}

			}
, 			{
				"box" : 				{
					"maxclass" : "button",
					"numinlets" : 1,
					"patching_rect" : [ 1533.0, 837.0, 20.0, 20.0 ],
					"numoutlets" : 1,
					"id" : "obj-133",
					"outlettype" : [ "bang" ]
				}

			}
, 			{
				"box" : 				{
					"maxclass" : "message",
					"text" : "viola-harmonic-gliss-Eb.wav",
					"numinlets" : 2,
					"patching_rect" : [ 1465.0, 691.0, 160.0, 18.0 ],
					"numoutlets" : 1,
					"id" : "obj-134",
					"fontname" : "Arial",
					"outlettype" : [ "" ],
					"fontsize" : 12.0
				}

			}
, 			{
				"box" : 				{
					"maxclass" : "message",
					"text" : "read",
					"numinlets" : 2,
					"patching_rect" : [ 1464.0, 755.0, 35.0, 18.0 ],
					"numoutlets" : 1,
					"id" : "obj-135",
					"fontname" : "Arial",
					"outlettype" : [ "" ],
					"fontsize" : 12.0
				}

			}
, 			{
				"box" : 				{
					"maxclass" : "newobj",
					"text" : "zl join",
					"numinlets" : 2,
					"patching_rect" : [ 1464.0, 783.0, 49.0, 20.0 ],
					"numoutlets" : 2,
					"id" : "obj-136",
					"fontname" : "Arial",
					"outlettype" : [ "", "" ],
					"fontsize" : 12.0
				}

			}
, 			{
				"box" : 				{
					"maxclass" : "newobj",
					"text" : "buffer~ VIOLA",
					"numinlets" : 1,
					"patching_rect" : [ 1464.0, 809.0, 87.0, 20.0 ],
					"numoutlets" : 2,
					"id" : "obj-137",
					"fontname" : "Arial",
					"outlettype" : [ "float", "bang" ],
					"fontsize" : 12.0
				}

			}
, 			{
				"box" : 				{
					"maxclass" : "button",
					"numinlets" : 1,
					"patching_rect" : [ 1407.0, 841.0, 20.0, 20.0 ],
					"numoutlets" : 1,
					"id" : "obj-128",
					"outlettype" : [ "bang" ]
				}

			}
, 			{
				"box" : 				{
					"maxclass" : "message",
					"text" : "toy-piano-Eb-hi.wav",
					"numinlets" : 2,
					"patching_rect" : [ 1339.0, 695.0, 117.0, 18.0 ],
					"numoutlets" : 1,
					"id" : "obj-129",
					"fontname" : "Arial",
					"outlettype" : [ "" ],
					"fontsize" : 12.0
				}

			}
, 			{
				"box" : 				{
					"maxclass" : "message",
					"text" : "read",
					"numinlets" : 2,
					"patching_rect" : [ 1338.0, 759.0, 35.0, 18.0 ],
					"numoutlets" : 1,
					"id" : "obj-130",
					"fontname" : "Arial",
					"outlettype" : [ "" ],
					"fontsize" : 12.0
				}

			}
, 			{
				"box" : 				{
					"maxclass" : "newobj",
					"text" : "zl join",
					"numinlets" : 2,
					"patching_rect" : [ 1338.0, 787.0, 49.0, 20.0 ],
					"numoutlets" : 2,
					"id" : "obj-131",
					"fontname" : "Arial",
					"outlettype" : [ "", "" ],
					"fontsize" : 12.0
				}

			}
, 			{
				"box" : 				{
					"maxclass" : "newobj",
					"text" : "buffer~ TOY_PIANO",
					"numinlets" : 1,
					"patching_rect" : [ 1338.0, 813.0, 120.0, 20.0 ],
					"numoutlets" : 2,
					"id" : "obj-132",
					"fontname" : "Arial",
					"outlettype" : [ "float", "bang" ],
					"fontsize" : 12.0
				}

			}
, 			{
				"box" : 				{
					"maxclass" : "button",
					"numinlets" : 1,
					"patching_rect" : [ 1280.0, 845.0, 20.0, 20.0 ],
					"numoutlets" : 1,
					"id" : "obj-123",
					"outlettype" : [ "bang" ]
				}

			}
, 			{
				"box" : 				{
					"maxclass" : "message",
					"text" : "singing-female1-Eb-hi.wav",
					"numinlets" : 2,
					"patching_rect" : [ 1212.0, 699.0, 152.0, 18.0 ],
					"numoutlets" : 1,
					"id" : "obj-124",
					"fontname" : "Arial",
					"outlettype" : [ "" ],
					"fontsize" : 12.0
				}

			}
, 			{
				"box" : 				{
					"maxclass" : "message",
					"text" : "read",
					"numinlets" : 2,
					"patching_rect" : [ 1211.0, 763.0, 35.0, 18.0 ],
					"numoutlets" : 1,
					"id" : "obj-125",
					"fontname" : "Arial",
					"outlettype" : [ "" ],
					"fontsize" : 12.0
				}

			}
, 			{
				"box" : 				{
					"maxclass" : "newobj",
					"text" : "zl join",
					"numinlets" : 2,
					"patching_rect" : [ 1211.0, 791.0, 49.0, 20.0 ],
					"numoutlets" : 2,
					"id" : "obj-126",
					"fontname" : "Arial",
					"outlettype" : [ "", "" ],
					"fontsize" : 12.0
				}

			}
, 			{
				"box" : 				{
					"maxclass" : "newobj",
					"text" : "buffer~ FEMALE",
					"numinlets" : 1,
					"patching_rect" : [ 1211.0, 817.0, 99.0, 20.0 ],
					"numoutlets" : 2,
					"id" : "obj-127",
					"fontname" : "Arial",
					"outlettype" : [ "float", "bang" ],
					"fontsize" : 12.0
				}

			}
, 			{
				"box" : 				{
					"maxclass" : "button",
					"numinlets" : 1,
					"patching_rect" : [ 1157.0, 841.0, 20.0, 20.0 ],
					"numoutlets" : 1,
					"id" : "obj-118",
					"outlettype" : [ "bang" ]
				}

			}
, 			{
				"box" : 				{
					"maxclass" : "message",
					"text" : "saxophone-alto-Eb-octave0.wav",
					"numinlets" : 2,
					"patching_rect" : [ 1089.0, 695.0, 182.0, 18.0 ],
					"numoutlets" : 1,
					"id" : "obj-119",
					"fontname" : "Arial",
					"outlettype" : [ "" ],
					"fontsize" : 12.0
				}

			}
, 			{
				"box" : 				{
					"maxclass" : "message",
					"text" : "read",
					"numinlets" : 2,
					"patching_rect" : [ 1088.0, 759.0, 35.0, 18.0 ],
					"numoutlets" : 1,
					"id" : "obj-120",
					"fontname" : "Arial",
					"outlettype" : [ "" ],
					"fontsize" : 12.0
				}

			}
, 			{
				"box" : 				{
					"maxclass" : "newobj",
					"text" : "zl join",
					"numinlets" : 2,
					"patching_rect" : [ 1088.0, 787.0, 49.0, 20.0 ],
					"numoutlets" : 2,
					"id" : "obj-121",
					"fontname" : "Arial",
					"outlettype" : [ "", "" ],
					"fontsize" : 12.0
				}

			}
, 			{
				"box" : 				{
					"maxclass" : "newobj",
					"text" : "buffer~ SAX",
					"numinlets" : 1,
					"patching_rect" : [ 1088.0, 813.0, 75.0, 20.0 ],
					"numoutlets" : 2,
					"id" : "obj-122",
					"fontname" : "Arial",
					"outlettype" : [ "float", "bang" ],
					"fontsize" : 12.0
				}

			}
, 			{
				"box" : 				{
					"maxclass" : "button",
					"numinlets" : 1,
					"patching_rect" : [ 1031.0, 842.0, 20.0, 20.0 ],
					"numoutlets" : 1,
					"id" : "obj-113",
					"outlettype" : [ "bang" ]
				}

			}
, 			{
				"box" : 				{
					"maxclass" : "message",
					"text" : "pop.wav",
					"numinlets" : 2,
					"patching_rect" : [ 963.0, 696.0, 55.0, 18.0 ],
					"numoutlets" : 1,
					"id" : "obj-114",
					"fontname" : "Arial",
					"outlettype" : [ "" ],
					"fontsize" : 12.0
				}

			}
, 			{
				"box" : 				{
					"maxclass" : "message",
					"text" : "read",
					"numinlets" : 2,
					"patching_rect" : [ 962.0, 760.0, 35.0, 18.0 ],
					"numoutlets" : 1,
					"id" : "obj-115",
					"fontname" : "Arial",
					"outlettype" : [ "" ],
					"fontsize" : 12.0
				}

			}
, 			{
				"box" : 				{
					"maxclass" : "newobj",
					"text" : "zl join",
					"numinlets" : 2,
					"patching_rect" : [ 962.0, 788.0, 49.0, 20.0 ],
					"numoutlets" : 2,
					"id" : "obj-116",
					"fontname" : "Arial",
					"outlettype" : [ "", "" ],
					"fontsize" : 12.0
				}

			}
, 			{
				"box" : 				{
					"maxclass" : "newobj",
					"text" : "buffer~ POP",
					"numinlets" : 1,
					"patching_rect" : [ 962.0, 814.0, 77.0, 20.0 ],
					"numoutlets" : 2,
					"id" : "obj-117",
					"fontname" : "Arial",
					"outlettype" : [ "float", "bang" ],
					"fontsize" : 12.0
				}

			}
, 			{
				"box" : 				{
					"maxclass" : "button",
					"numinlets" : 1,
					"patching_rect" : [ 907.0, 839.0, 20.0, 20.0 ],
					"numoutlets" : 1,
					"id" : "obj-108",
					"outlettype" : [ "bang" ]
				}

			}
, 			{
				"box" : 				{
					"maxclass" : "message",
					"text" : "clarinet-Eb-octave2.wav",
					"numinlets" : 2,
					"patching_rect" : [ 838.0, 709.0, 139.0, 18.0 ],
					"numoutlets" : 1,
					"id" : "obj-109",
					"fontname" : "Arial",
					"outlettype" : [ "" ],
					"fontsize" : 12.0
				}

			}
, 			{
				"box" : 				{
					"maxclass" : "message",
					"text" : "read",
					"numinlets" : 2,
					"patching_rect" : [ 838.0, 757.0, 35.0, 18.0 ],
					"numoutlets" : 1,
					"id" : "obj-110",
					"fontname" : "Arial",
					"outlettype" : [ "" ],
					"fontsize" : 12.0
				}

			}
, 			{
				"box" : 				{
					"maxclass" : "newobj",
					"text" : "zl join",
					"numinlets" : 2,
					"patching_rect" : [ 838.0, 785.0, 49.0, 20.0 ],
					"numoutlets" : 2,
					"id" : "obj-111",
					"fontname" : "Arial",
					"outlettype" : [ "", "" ],
					"fontsize" : 12.0
				}

			}
, 			{
				"box" : 				{
					"maxclass" : "newobj",
					"text" : "buffer~ CLARINET",
					"numinlets" : 1,
					"patching_rect" : [ 838.0, 811.0, 111.0, 20.0 ],
					"numoutlets" : 2,
					"id" : "obj-112",
					"fontname" : "Arial",
					"outlettype" : [ "float", "bang" ],
					"fontsize" : 12.0
				}

			}
, 			{
				"box" : 				{
					"maxclass" : "button",
					"numinlets" : 1,
					"patching_rect" : [ 781.0, 875.0, 20.0, 20.0 ],
					"numoutlets" : 1,
					"id" : "obj-103",
					"outlettype" : [ "bang" ]
				}

			}
, 			{
				"box" : 				{
					"maxclass" : "message",
					"text" : "guitar-classical-Eb-octave3.wav",
					"numinlets" : 2,
					"patching_rect" : [ 713.0, 732.0, 179.0, 18.0 ],
					"numoutlets" : 1,
					"id" : "obj-104",
					"fontname" : "Arial",
					"outlettype" : [ "" ],
					"fontsize" : 12.0
				}

			}
, 			{
				"box" : 				{
					"maxclass" : "message",
					"text" : "read",
					"numinlets" : 2,
					"patching_rect" : [ 712.0, 755.0, 35.0, 18.0 ],
					"numoutlets" : 1,
					"id" : "obj-105",
					"fontname" : "Arial",
					"outlettype" : [ "" ],
					"fontsize" : 12.0
				}

			}
, 			{
				"box" : 				{
					"maxclass" : "newobj",
					"text" : "zl join",
					"numinlets" : 2,
					"patching_rect" : [ 712.0, 783.0, 49.0, 20.0 ],
					"numoutlets" : 2,
					"id" : "obj-106",
					"fontname" : "Arial",
					"outlettype" : [ "", "" ],
					"fontsize" : 12.0
				}

			}
, 			{
				"box" : 				{
					"maxclass" : "newobj",
					"text" : "buffer~ GUITAR_CLASSIC",
					"numinlets" : 1,
					"patching_rect" : [ 712.0, 846.0, 155.0, 20.0 ],
					"numoutlets" : 2,
					"id" : "obj-107",
					"fontname" : "Arial",
					"outlettype" : [ "float", "bang" ],
					"fontsize" : 12.0
				}

			}
, 			{
				"box" : 				{
					"maxclass" : "button",
					"numinlets" : 1,
					"patching_rect" : [ 656.0, 837.0, 20.0, 20.0 ],
					"numoutlets" : 1,
					"id" : "obj-98",
					"outlettype" : [ "bang" ]
				}

			}
, 			{
				"box" : 				{
					"maxclass" : "message",
					"text" : "guitar-elec-solid-dist-Eb-octave1-long.wav",
					"numinlets" : 2,
					"patching_rect" : [ 586.0, 712.0, 234.0, 18.0 ],
					"numoutlets" : 1,
					"id" : "obj-99",
					"fontname" : "Arial",
					"outlettype" : [ "" ],
					"fontsize" : 12.0
				}

			}
, 			{
				"box" : 				{
					"maxclass" : "message",
					"text" : "read",
					"numinlets" : 2,
					"patching_rect" : [ 587.0, 755.0, 35.0, 18.0 ],
					"numoutlets" : 1,
					"id" : "obj-100",
					"fontname" : "Arial",
					"outlettype" : [ "" ],
					"fontsize" : 12.0
				}

			}
, 			{
				"box" : 				{
					"maxclass" : "newobj",
					"text" : "zl join",
					"numinlets" : 2,
					"patching_rect" : [ 587.0, 783.0, 49.0, 20.0 ],
					"numoutlets" : 2,
					"id" : "obj-101",
					"fontname" : "Arial",
					"outlettype" : [ "", "" ],
					"fontsize" : 12.0
				}

			}
, 			{
				"box" : 				{
					"maxclass" : "newobj",
					"text" : "buffer~ GUITAR_ELEC",
					"numinlets" : 1,
					"patching_rect" : [ 588.0, 809.0, 135.0, 20.0 ],
					"numoutlets" : 2,
					"id" : "obj-102",
					"fontname" : "Arial",
					"outlettype" : [ "float", "bang" ],
					"fontsize" : 12.0
				}

			}
, 			{
				"box" : 				{
					"maxclass" : "button",
					"numinlets" : 1,
					"patching_rect" : [ 529.0, 836.0, 20.0, 20.0 ],
					"numoutlets" : 1,
					"id" : "obj-93",
					"outlettype" : [ "bang" ]
				}

			}
, 			{
				"box" : 				{
					"maxclass" : "message",
					"text" : "ching.wav",
					"numinlets" : 2,
					"patching_rect" : [ 461.0, 690.0, 64.0, 18.0 ],
					"numoutlets" : 1,
					"id" : "obj-94",
					"fontname" : "Arial",
					"outlettype" : [ "" ],
					"fontsize" : 12.0
				}

			}
, 			{
				"box" : 				{
					"maxclass" : "message",
					"text" : "read",
					"numinlets" : 2,
					"patching_rect" : [ 460.0, 754.0, 35.0, 18.0 ],
					"numoutlets" : 1,
					"id" : "obj-95",
					"fontname" : "Arial",
					"outlettype" : [ "" ],
					"fontsize" : 12.0
				}

			}
, 			{
				"box" : 				{
					"maxclass" : "newobj",
					"text" : "zl join",
					"numinlets" : 2,
					"patching_rect" : [ 460.0, 782.0, 49.0, 20.0 ],
					"numoutlets" : 2,
					"id" : "obj-96",
					"fontname" : "Arial",
					"outlettype" : [ "", "" ],
					"fontsize" : 12.0
				}

			}
, 			{
				"box" : 				{
					"maxclass" : "newobj",
					"text" : "buffer~ CHING",
					"numinlets" : 1,
					"patching_rect" : [ 460.0, 807.0, 90.0, 20.0 ],
					"numoutlets" : 2,
					"id" : "obj-97",
					"fontname" : "Arial",
					"outlettype" : [ "float", "bang" ],
					"fontsize" : 12.0
				}

			}
, 			{
				"box" : 				{
					"maxclass" : "newobj",
					"text" : "t b b b b b b b b b b b b",
					"numinlets" : 1,
					"patching_rect" : [ 211.0, 655.0, 1398.5, 20.0 ],
					"numoutlets" : 12,
					"id" : "obj-92",
					"fontname" : "Arial",
					"outlettype" : [ "bang", "bang", "bang", "bang", "bang", "bang", "bang", "bang", "bang", "bang", "bang", "bang" ],
					"fontsize" : 12.0
				}

			}
, 			{
				"box" : 				{
					"maxclass" : "newobj",
					"text" : "send trigger",
					"numinlets" : 1,
					"patching_rect" : [ 377.0, 113.0, 74.0, 20.0 ],
					"numoutlets" : 0,
					"id" : "obj-91",
					"fontname" : "Arial",
					"fontsize" : 12.0
				}

			}
, 			{
				"box" : 				{
					"maxclass" : "newobj",
					"text" : "receive trigger",
					"numinlets" : 0,
					"patching_rect" : [ 478.0, 210.0, 87.0, 20.0 ],
					"numoutlets" : 1,
					"id" : "obj-90",
					"fontname" : "Arial",
					"outlettype" : [ "" ],
					"fontsize" : 12.0
				}

			}
, 			{
				"box" : 				{
					"maxclass" : "button",
					"numinlets" : 1,
					"patching_rect" : [ 1700.0, 331.0, 20.0, 20.0 ],
					"numoutlets" : 1,
					"id" : "obj-86",
					"outlettype" : [ "bang" ]
				}

			}
, 			{
				"box" : 				{
					"maxclass" : "flonum",
					"numinlets" : 1,
					"patching_rect" : [ 1700.0, 357.0, 50.0, 20.0 ],
					"numoutlets" : 2,
					"id" : "obj-87",
					"fontname" : "Arial",
					"outlettype" : [ "float", "bang" ],
					"fontsize" : 11.595187
				}

			}
, 			{
				"box" : 				{
					"maxclass" : "newobj",
					"text" : "sig~",
					"numinlets" : 1,
					"patching_rect" : [ 1773.0, 344.0, 33.0, 20.0 ],
					"numoutlets" : 1,
					"id" : "obj-88",
					"fontname" : "Arial",
					"outlettype" : [ "signal" ],
					"fontsize" : 12.0
				}

			}
, 			{
				"box" : 				{
					"maxclass" : "newobj",
					"text" : "groove~ ZAP",
					"numinlets" : 3,
					"patching_rect" : [ 1700.0, 389.0, 81.0, 20.0 ],
					"numoutlets" : 2,
					"id" : "obj-89",
					"fontname" : "Arial",
					"outlettype" : [ "signal", "signal" ],
					"fontsize" : 12.0
				}

			}
, 			{
				"box" : 				{
					"maxclass" : "button",
					"numinlets" : 1,
					"patching_rect" : [ 1590.0, 331.0, 20.0, 20.0 ],
					"numoutlets" : 1,
					"id" : "obj-82",
					"outlettype" : [ "bang" ]
				}

			}
, 			{
				"box" : 				{
					"maxclass" : "flonum",
					"numinlets" : 1,
					"patching_rect" : [ 1590.0, 357.0, 50.0, 20.0 ],
					"numoutlets" : 2,
					"id" : "obj-83",
					"fontname" : "Arial",
					"outlettype" : [ "float", "bang" ],
					"fontsize" : 11.595187
				}

			}
, 			{
				"box" : 				{
					"maxclass" : "newobj",
					"text" : "sig~",
					"numinlets" : 1,
					"patching_rect" : [ 1663.0, 344.0, 33.0, 20.0 ],
					"numoutlets" : 1,
					"id" : "obj-84",
					"fontname" : "Arial",
					"outlettype" : [ "signal" ],
					"fontsize" : 12.0
				}

			}
, 			{
				"box" : 				{
					"maxclass" : "newobj",
					"text" : "groove~ VIOLA",
					"numinlets" : 3,
					"patching_rect" : [ 1590.0, 389.0, 93.0, 20.0 ],
					"numoutlets" : 2,
					"id" : "obj-85",
					"fontname" : "Arial",
					"outlettype" : [ "signal", "signal" ],
					"fontsize" : 12.0
				}

			}
, 			{
				"box" : 				{
					"maxclass" : "button",
					"numinlets" : 1,
					"patching_rect" : [ 1481.0, 330.0, 20.0, 20.0 ],
					"numoutlets" : 1,
					"id" : "obj-78",
					"outlettype" : [ "bang" ]
				}

			}
, 			{
				"box" : 				{
					"maxclass" : "flonum",
					"numinlets" : 1,
					"patching_rect" : [ 1481.0, 356.0, 50.0, 20.0 ],
					"numoutlets" : 2,
					"id" : "obj-79",
					"fontname" : "Arial",
					"outlettype" : [ "float", "bang" ],
					"fontsize" : 11.595187
				}

			}
, 			{
				"box" : 				{
					"maxclass" : "newobj",
					"text" : "sig~",
					"numinlets" : 1,
					"patching_rect" : [ 1554.0, 343.0, 33.0, 20.0 ],
					"numoutlets" : 1,
					"id" : "obj-80",
					"fontname" : "Arial",
					"outlettype" : [ "signal" ],
					"fontsize" : 12.0
				}

			}
, 			{
				"box" : 				{
					"maxclass" : "newobj",
					"text" : "groove~ TOY_PIANO",
					"numinlets" : 3,
					"patching_rect" : [ 1481.0, 388.0, 126.0, 20.0 ],
					"numoutlets" : 2,
					"id" : "obj-81",
					"fontname" : "Arial",
					"outlettype" : [ "signal", "signal" ],
					"fontsize" : 12.0
				}

			}
, 			{
				"box" : 				{
					"maxclass" : "button",
					"numinlets" : 1,
					"patching_rect" : [ 1368.0, 329.0, 20.0, 20.0 ],
					"numoutlets" : 1,
					"id" : "obj-74",
					"outlettype" : [ "bang" ]
				}

			}
, 			{
				"box" : 				{
					"maxclass" : "flonum",
					"numinlets" : 1,
					"patching_rect" : [ 1368.0, 355.0, 50.0, 20.0 ],
					"numoutlets" : 2,
					"id" : "obj-75",
					"fontname" : "Arial",
					"outlettype" : [ "float", "bang" ],
					"fontsize" : 11.595187
				}

			}
, 			{
				"box" : 				{
					"maxclass" : "newobj",
					"text" : "sig~",
					"numinlets" : 1,
					"patching_rect" : [ 1441.0, 342.0, 33.0, 20.0 ],
					"numoutlets" : 1,
					"id" : "obj-76",
					"fontname" : "Arial",
					"outlettype" : [ "signal" ],
					"fontsize" : 12.0
				}

			}
, 			{
				"box" : 				{
					"maxclass" : "newobj",
					"text" : "groove~ FEMALE",
					"numinlets" : 3,
					"patching_rect" : [ 1368.0, 387.0, 106.0, 20.0 ],
					"numoutlets" : 2,
					"id" : "obj-77",
					"fontname" : "Arial",
					"outlettype" : [ "signal", "signal" ],
					"fontsize" : 12.0
				}

			}
, 			{
				"box" : 				{
					"maxclass" : "button",
					"numinlets" : 1,
					"patching_rect" : [ 1253.0, 329.0, 20.0, 20.0 ],
					"numoutlets" : 1,
					"id" : "obj-70",
					"outlettype" : [ "bang" ]
				}

			}
, 			{
				"box" : 				{
					"maxclass" : "flonum",
					"numinlets" : 1,
					"patching_rect" : [ 1253.0, 355.0, 50.0, 20.0 ],
					"numoutlets" : 2,
					"id" : "obj-71",
					"fontname" : "Arial",
					"outlettype" : [ "float", "bang" ],
					"fontsize" : 11.595187
				}

			}
, 			{
				"box" : 				{
					"maxclass" : "newobj",
					"text" : "sig~",
					"numinlets" : 1,
					"patching_rect" : [ 1326.0, 342.0, 33.0, 20.0 ],
					"numoutlets" : 1,
					"id" : "obj-72",
					"fontname" : "Arial",
					"outlettype" : [ "signal" ],
					"fontsize" : 12.0
				}

			}
, 			{
				"box" : 				{
					"maxclass" : "newobj",
					"text" : "groove~ SAX",
					"numinlets" : 3,
					"patching_rect" : [ 1253.0, 387.0, 82.0, 20.0 ],
					"numoutlets" : 2,
					"id" : "obj-73",
					"fontname" : "Arial",
					"outlettype" : [ "signal", "signal" ],
					"fontsize" : 12.0
				}

			}
, 			{
				"box" : 				{
					"maxclass" : "button",
					"numinlets" : 1,
					"patching_rect" : [ 1140.0, 326.0, 20.0, 20.0 ],
					"numoutlets" : 1,
					"id" : "obj-66",
					"outlettype" : [ "bang" ]
				}

			}
, 			{
				"box" : 				{
					"maxclass" : "flonum",
					"numinlets" : 1,
					"patching_rect" : [ 1140.0, 352.0, 50.0, 20.0 ],
					"numoutlets" : 2,
					"id" : "obj-67",
					"fontname" : "Arial",
					"outlettype" : [ "float", "bang" ],
					"fontsize" : 11.595187
				}

			}
, 			{
				"box" : 				{
					"maxclass" : "newobj",
					"text" : "sig~",
					"numinlets" : 1,
					"patching_rect" : [ 1213.0, 339.0, 33.0, 20.0 ],
					"numoutlets" : 1,
					"id" : "obj-68",
					"fontname" : "Arial",
					"outlettype" : [ "signal" ],
					"fontsize" : 12.0
				}

			}
, 			{
				"box" : 				{
					"maxclass" : "newobj",
					"text" : "groove~ POP",
					"numinlets" : 3,
					"patching_rect" : [ 1140.0, 384.0, 83.0, 20.0 ],
					"numoutlets" : 2,
					"id" : "obj-69",
					"fontname" : "Arial",
					"outlettype" : [ "signal", "signal" ],
					"fontsize" : 12.0
				}

			}
, 			{
				"box" : 				{
					"maxclass" : "button",
					"numinlets" : 1,
					"patching_rect" : [ 1029.0, 324.0, 20.0, 20.0 ],
					"numoutlets" : 1,
					"id" : "obj-62",
					"outlettype" : [ "bang" ]
				}

			}
, 			{
				"box" : 				{
					"maxclass" : "flonum",
					"numinlets" : 1,
					"patching_rect" : [ 1029.0, 350.0, 50.0, 20.0 ],
					"numoutlets" : 2,
					"id" : "obj-63",
					"fontname" : "Arial",
					"outlettype" : [ "float", "bang" ],
					"fontsize" : 11.595187
				}

			}
, 			{
				"box" : 				{
					"maxclass" : "newobj",
					"text" : "sig~",
					"numinlets" : 1,
					"patching_rect" : [ 1102.0, 337.0, 33.0, 20.0 ],
					"numoutlets" : 1,
					"id" : "obj-64",
					"fontname" : "Arial",
					"outlettype" : [ "signal" ],
					"fontsize" : 12.0
				}

			}
, 			{
				"box" : 				{
					"maxclass" : "newobj",
					"text" : "groove~ CLARINET",
					"numinlets" : 3,
					"patching_rect" : [ 1031.0, 430.0, 117.0, 20.0 ],
					"numoutlets" : 2,
					"id" : "obj-65",
					"fontname" : "Arial",
					"outlettype" : [ "signal", "signal" ],
					"fontsize" : 12.0
				}

			}
, 			{
				"box" : 				{
					"maxclass" : "button",
					"numinlets" : 1,
					"patching_rect" : [ 917.0, 324.0, 20.0, 20.0 ],
					"numoutlets" : 1,
					"id" : "obj-41",
					"outlettype" : [ "bang" ]
				}

			}
, 			{
				"box" : 				{
					"maxclass" : "flonum",
					"numinlets" : 1,
					"patching_rect" : [ 917.0, 350.0, 50.0, 20.0 ],
					"numoutlets" : 2,
					"id" : "obj-44",
					"fontname" : "Arial",
					"outlettype" : [ "float", "bang" ],
					"fontsize" : 11.595187
				}

			}
, 			{
				"box" : 				{
					"maxclass" : "newobj",
					"text" : "sig~",
					"numinlets" : 1,
					"patching_rect" : [ 990.0, 337.0, 33.0, 20.0 ],
					"numoutlets" : 1,
					"id" : "obj-45",
					"fontname" : "Arial",
					"outlettype" : [ "signal" ],
					"fontsize" : 12.0
				}

			}
, 			{
				"box" : 				{
					"maxclass" : "newobj",
					"text" : "groove~ GUITAR_CLASSIC",
					"numinlets" : 3,
					"patching_rect" : [ 919.0, 406.0, 161.0, 20.0 ],
					"numoutlets" : 2,
					"id" : "obj-46",
					"fontname" : "Arial",
					"outlettype" : [ "signal", "signal" ],
					"fontsize" : 12.0
				}

			}
, 			{
				"box" : 				{
					"maxclass" : "button",
					"numinlets" : 1,
					"patching_rect" : [ 804.0, 324.0, 20.0, 20.0 ],
					"numoutlets" : 1,
					"id" : "obj-28",
					"outlettype" : [ "bang" ]
				}

			}
, 			{
				"box" : 				{
					"maxclass" : "flonum",
					"numinlets" : 1,
					"patching_rect" : [ 804.0, 350.0, 50.0, 20.0 ],
					"numoutlets" : 2,
					"id" : "obj-30",
					"fontname" : "Arial",
					"outlettype" : [ "float", "bang" ],
					"fontsize" : 11.595187
				}

			}
, 			{
				"box" : 				{
					"maxclass" : "newobj",
					"text" : "sig~",
					"numinlets" : 1,
					"patching_rect" : [ 877.0, 337.0, 33.0, 20.0 ],
					"numoutlets" : 1,
					"id" : "obj-35",
					"fontname" : "Arial",
					"outlettype" : [ "signal" ],
					"fontsize" : 12.0
				}

			}
, 			{
				"box" : 				{
					"maxclass" : "newobj",
					"text" : "groove~ GUITAR_ELEC",
					"numinlets" : 3,
					"patching_rect" : [ 805.0, 384.0, 141.0, 20.0 ],
					"numoutlets" : 2,
					"id" : "obj-36",
					"fontname" : "Arial",
					"outlettype" : [ "signal", "signal" ],
					"fontsize" : 12.0
				}

			}
, 			{
				"box" : 				{
					"maxclass" : "button",
					"numinlets" : 1,
					"patching_rect" : [ 694.0, 324.0, 20.0, 20.0 ],
					"numoutlets" : 1,
					"id" : "obj-18",
					"outlettype" : [ "bang" ]
				}

			}
, 			{
				"box" : 				{
					"maxclass" : "flonum",
					"numinlets" : 1,
					"patching_rect" : [ 694.0, 350.0, 50.0, 20.0 ],
					"numoutlets" : 2,
					"id" : "obj-21",
					"fontname" : "Arial",
					"outlettype" : [ "float", "bang" ],
					"fontsize" : 11.595187
				}

			}
, 			{
				"box" : 				{
					"maxclass" : "newobj",
					"text" : "sig~",
					"numinlets" : 1,
					"patching_rect" : [ 767.0, 337.0, 33.0, 20.0 ],
					"numoutlets" : 1,
					"id" : "obj-23",
					"fontname" : "Arial",
					"outlettype" : [ "signal" ],
					"fontsize" : 12.0
				}

			}
, 			{
				"box" : 				{
					"maxclass" : "newobj",
					"text" : "groove~ CHING",
					"numinlets" : 3,
					"patching_rect" : [ 694.0, 382.0, 96.0, 20.0 ],
					"numoutlets" : 2,
					"id" : "obj-25",
					"fontname" : "Arial",
					"outlettype" : [ "signal", "signal" ],
					"fontsize" : 12.0
				}

			}
, 			{
				"box" : 				{
					"maxclass" : "button",
					"numinlets" : 1,
					"patching_rect" : [ 585.0, 324.0, 20.0, 20.0 ],
					"numoutlets" : 1,
					"id" : "obj-9",
					"outlettype" : [ "bang" ]
				}

			}
, 			{
				"box" : 				{
					"maxclass" : "flonum",
					"numinlets" : 1,
					"patching_rect" : [ 585.0, 350.0, 50.0, 20.0 ],
					"numoutlets" : 2,
					"id" : "obj-11",
					"fontname" : "Arial",
					"outlettype" : [ "float", "bang" ],
					"fontsize" : 11.595187
				}

			}
, 			{
				"box" : 				{
					"maxclass" : "newobj",
					"text" : "sig~",
					"numinlets" : 1,
					"patching_rect" : [ 658.0, 337.0, 33.0, 20.0 ],
					"numoutlets" : 1,
					"id" : "obj-12",
					"fontname" : "Arial",
					"outlettype" : [ "signal" ],
					"fontsize" : 12.0
				}

			}
, 			{
				"box" : 				{
					"maxclass" : "newobj",
					"text" : "groove~ BANJO",
					"numinlets" : 3,
					"patching_rect" : [ 585.0, 382.0, 98.0, 20.0 ],
					"numoutlets" : 2,
					"id" : "obj-17",
					"fontname" : "Arial",
					"outlettype" : [ "signal", "signal" ],
					"fontsize" : 12.0
				}

			}
, 			{
				"box" : 				{
					"maxclass" : "newobj",
					"text" : "route BUZZ BANJO CHING GUITAR_ELEC GUITAR_CLASSIC CLARINET POP SAX FEMALE TOY_PIANO VIOLA ZAP",
					"numinlets" : 1,
					"patching_rect" : [ 478.0, 237.0, 1235.0, 20.0 ],
					"numoutlets" : 13,
					"id" : "obj-43",
					"fontname" : "Arial",
					"outlettype" : [ "", "", "", "", "", "", "", "", "", "", "", "", "" ],
					"fontsize" : 12.0
				}

			}
, 			{
				"box" : 				{
					"maxclass" : "button",
					"numinlets" : 1,
					"patching_rect" : [ 477.0, 323.0, 20.0, 20.0 ],
					"numoutlets" : 1,
					"id" : "obj-26",
					"outlettype" : [ "bang" ]
				}

			}
, 			{
				"box" : 				{
					"maxclass" : "flonum",
					"numinlets" : 1,
					"patching_rect" : [ 477.0, 349.0, 50.0, 20.0 ],
					"numoutlets" : 2,
					"id" : "obj-27",
					"fontname" : "Arial",
					"outlettype" : [ "float", "bang" ],
					"fontsize" : 11.595187
				}

			}
, 			{
				"box" : 				{
					"maxclass" : "newobj",
					"text" : "sig~",
					"numinlets" : 1,
					"patching_rect" : [ 550.0, 336.0, 33.0, 20.0 ],
					"numoutlets" : 1,
					"id" : "obj-24",
					"fontname" : "Arial",
					"outlettype" : [ "signal" ],
					"fontsize" : 12.0
				}

			}
, 			{
				"box" : 				{
					"maxclass" : "ezdac~",
					"numinlets" : 2,
					"patching_rect" : [ 962.0, 596.0, 45.0, 45.0 ],
					"numoutlets" : 0,
					"id" : "obj-22"
				}

			}
, 			{
				"box" : 				{
					"maxclass" : "newobj",
					"text" : "groove~ BUZZ",
					"numinlets" : 3,
					"patching_rect" : [ 477.0, 381.0, 89.0, 20.0 ],
					"numoutlets" : 2,
					"id" : "obj-20",
					"fontname" : "Arial",
					"outlettype" : [ "signal", "signal" ],
					"fontsize" : 12.0
				}

			}
, 			{
				"box" : 				{
					"maxclass" : "button",
					"numinlets" : 1,
					"patching_rect" : [ 402.0, 834.0, 20.0, 20.0 ],
					"numoutlets" : 1,
					"id" : "obj-50",
					"outlettype" : [ "bang" ]
				}

			}
, 			{
				"box" : 				{
					"maxclass" : "message",
					"text" : "banjo-Eb-hi.wav",
					"numinlets" : 2,
					"patching_rect" : [ 334.0, 688.0, 97.0, 18.0 ],
					"numoutlets" : 1,
					"id" : "obj-51",
					"fontname" : "Arial",
					"outlettype" : [ "" ],
					"fontsize" : 12.0
				}

			}
, 			{
				"box" : 				{
					"maxclass" : "message",
					"text" : "read",
					"numinlets" : 2,
					"patching_rect" : [ 333.0, 752.0, 35.0, 18.0 ],
					"numoutlets" : 1,
					"id" : "obj-52",
					"fontname" : "Arial",
					"outlettype" : [ "" ],
					"fontsize" : 12.0
				}

			}
, 			{
				"box" : 				{
					"maxclass" : "newobj",
					"text" : "zl join",
					"numinlets" : 2,
					"patching_rect" : [ 333.0, 780.0, 49.0, 20.0 ],
					"numoutlets" : 2,
					"id" : "obj-53",
					"fontname" : "Arial",
					"outlettype" : [ "", "" ],
					"fontsize" : 12.0
				}

			}
, 			{
				"box" : 				{
					"maxclass" : "newobj",
					"text" : "buffer~ BANJO",
					"numinlets" : 1,
					"patching_rect" : [ 333.0, 806.0, 92.0, 20.0 ],
					"numoutlets" : 2,
					"id" : "obj-54",
					"fontname" : "Arial",
					"outlettype" : [ "float", "bang" ],
					"fontsize" : 12.0
				}

			}
, 			{
				"box" : 				{
					"maxclass" : "comment",
					"text" : "no full path and extension. Just filename as soundID",
					"linecount" : 2,
					"numinlets" : 1,
					"patching_rect" : [ 605.0, 26.0, 155.0, 34.0 ],
					"numoutlets" : 0,
					"id" : "obj-42",
					"fontname" : "Arial",
					"fontsize" : 12.0
				}

			}
, 			{
				"box" : 				{
					"maxclass" : "comment",
					"text" : "Send messages",
					"numinlets" : 1,
					"patching_rect" : [ 1408.0, 16.0, 150.0, 20.0 ],
					"numoutlets" : 0,
					"id" : "obj-40",
					"fontname" : "Arial",
					"fontsize" : 12.0
				}

			}
, 			{
				"box" : 				{
					"maxclass" : "comment",
					"text" : "start sample",
					"numinlets" : 1,
					"patching_rect" : [ 766.0, 159.0, 74.0, 20.0 ],
					"numoutlets" : 0,
					"id" : "obj-38",
					"fontname" : "Arial",
					"fontsize" : 12.0
				}

			}
, 			{
				"box" : 				{
					"maxclass" : "message",
					"text" : "/trigger 0",
					"numinlets" : 2,
					"patching_rect" : [ 1535.0, 131.0, 95.0, 18.0 ],
					"numoutlets" : 1,
					"id" : "obj-34",
					"fontname" : "Arial",
					"outlettype" : [ "" ],
					"fontsize" : 12.0
				}

			}
, 			{
				"box" : 				{
					"maxclass" : "message",
					"text" : "/trigger BUZZ 1",
					"numinlets" : 2,
					"patching_rect" : [ 1419.0, 129.0, 93.0, 18.0 ],
					"numoutlets" : 1,
					"id" : "obj-33",
					"fontname" : "Arial",
					"outlettype" : [ "" ],
					"fontsize" : 12.0
				}

			}
, 			{
				"box" : 				{
					"maxclass" : "newobj",
					"text" : "udpsend localhost 57850",
					"numinlets" : 1,
					"patching_rect" : [ 1419.0, 194.0, 144.0, 20.0 ],
					"numoutlets" : 0,
					"id" : "obj-32",
					"fontname" : "Arial",
					"fontsize" : 12.0
				}

			}
, 			{
				"box" : 				{
					"maxclass" : "comment",
					"text" : "/trigger (1,0)",
					"numinlets" : 1,
					"patching_rect" : [ 467.0, 85.0, 150.0, 20.0 ],
					"numoutlets" : 0,
					"id" : "obj-31",
					"fontname" : "Arial",
					"fontsize" : 12.0
				}

			}
, 			{
				"box" : 				{
					"maxclass" : "newobj",
					"text" : "route /file /trigger",
					"numinlets" : 1,
					"patching_rect" : [ 337.0, 84.0, 98.0, 20.0 ],
					"numoutlets" : 3,
					"id" : "obj-37",
					"fontname" : "Arial",
					"outlettype" : [ "", "", "" ],
					"fontsize" : 11.595187
				}

			}
, 			{
				"box" : 				{
					"maxclass" : "newobj",
					"text" : "udpreceive 57848",
					"numinlets" : 1,
					"patching_rect" : [ 337.0, 56.0, 106.0, 20.0 ],
					"numoutlets" : 1,
					"id" : "obj-29",
					"fontname" : "Arial",
					"outlettype" : [ "" ],
					"fontsize" : 12.0
				}

			}
, 			{
				"box" : 				{
					"maxclass" : "button",
					"numinlets" : 1,
					"patching_rect" : [ 279.0, 833.0, 20.0, 20.0 ],
					"numoutlets" : 1,
					"id" : "obj-15",
					"outlettype" : [ "bang" ]
				}

			}
, 			{
				"box" : 				{
					"maxclass" : "message",
					"text" : "buzz.wav",
					"numinlets" : 2,
					"patching_rect" : [ 211.0, 687.0, 61.0, 18.0 ],
					"numoutlets" : 1,
					"id" : "obj-14",
					"fontname" : "Arial",
					"outlettype" : [ "" ],
					"fontsize" : 12.0
				}

			}
, 			{
				"box" : 				{
					"maxclass" : "message",
					"text" : "read",
					"numinlets" : 2,
					"patching_rect" : [ 210.0, 751.0, 35.0, 18.0 ],
					"numoutlets" : 1,
					"id" : "obj-13",
					"fontname" : "Arial",
					"outlettype" : [ "" ],
					"fontsize" : 12.0
				}

			}
, 			{
				"box" : 				{
					"maxclass" : "newobj",
					"text" : "zl join",
					"numinlets" : 2,
					"patching_rect" : [ 210.0, 779.0, 49.0, 20.0 ],
					"numoutlets" : 2,
					"id" : "obj-10",
					"fontname" : "Arial",
					"outlettype" : [ "", "" ],
					"fontsize" : 12.0
				}

			}
, 			{
				"box" : 				{
					"maxclass" : "comment",
					"text" : "What kind of flexibility do we want when importing the audio file?\n\nWe probably want to be able to click on the name of the sample from the Java interface.",
					"linecount" : 8,
					"numinlets" : 1,
					"patching_rect" : [ 988.0, 74.0, 150.0, 117.0 ],
					"numoutlets" : 0,
					"id" : "obj-4",
					"fontname" : "Arial",
					"fontsize" : 12.0
				}

			}
, 			{
				"box" : 				{
					"maxclass" : "newobj",
					"text" : "buffer~ BUZZ",
					"numinlets" : 1,
					"patching_rect" : [ 210.0, 805.0, 83.0, 20.0 ],
					"numoutlets" : 2,
					"id" : "obj-2",
					"fontname" : "Arial",
					"outlettype" : [ "float", "bang" ],
					"fontsize" : 12.0
				}

			}
, 			{
				"box" : 				{
					"maxclass" : "comment",
					"text" : "Specifications for Sample Playback in AudioSketch:\n1. Be able to load in and trigger an audio file via OSC messages.\n2. Be able to alter playback...speed of playback, reverse playback, etc.\n3. Be able to filter the audio.",
					"linecount" : 11,
					"numinlets" : 1,
					"patching_rect" : [ 1200.0, 5.0, 150.0, 158.0 ],
					"numoutlets" : 0,
					"id" : "obj-1",
					"fontname" : "Arial",
					"fontsize" : 12.0
				}

			}
, 			{
				"box" : 				{
					"maxclass" : "panel",
					"numinlets" : 1,
					"patching_rect" : [ 1411.0, 44.0, 236.0, 241.0 ],
					"numoutlets" : 0,
					"id" : "obj-39"
				}

			}
 ],
		"lines" : [ 			{
				"patchline" : 				{
					"source" : [ "obj-6", 0 ],
					"destination" : [ "obj-22", 0 ],
					"hidden" : 0,
					"midpoints" : [ 594.5, 554.5, 971.5, 554.5 ]
				}

			}
, 			{
				"patchline" : 				{
					"source" : [ "obj-17", 0 ],
					"destination" : [ "obj-6", 0 ],
					"hidden" : 0,
					"midpoints" : [  ]
				}

			}
, 			{
				"patchline" : 				{
					"source" : [ "obj-5", 0 ],
					"destination" : [ "obj-22", 0 ],
					"hidden" : 0,
					"midpoints" : [ 486.5, 554.5, 971.5, 554.5 ]
				}

			}
, 			{
				"patchline" : 				{
					"source" : [ "obj-20", 0 ],
					"destination" : [ "obj-5", 0 ],
					"hidden" : 0,
					"midpoints" : [  ]
				}

			}
, 			{
				"patchline" : 				{
					"source" : [ "obj-142", 1 ],
					"destination" : [ "obj-138", 0 ],
					"hidden" : 0,
					"midpoints" : [  ]
				}

			}
, 			{
				"patchline" : 				{
					"source" : [ "obj-141", 0 ],
					"destination" : [ "obj-142", 0 ],
					"hidden" : 0,
					"midpoints" : [  ]
				}

			}
, 			{
				"patchline" : 				{
					"source" : [ "obj-136", 0 ],
					"destination" : [ "obj-137", 0 ],
					"hidden" : 0,
					"midpoints" : [  ]
				}

			}
, 			{
				"patchline" : 				{
					"source" : [ "obj-137", 1 ],
					"destination" : [ "obj-133", 0 ],
					"hidden" : 0,
					"midpoints" : [  ]
				}

			}
, 			{
				"patchline" : 				{
					"source" : [ "obj-131", 0 ],
					"destination" : [ "obj-132", 0 ],
					"hidden" : 0,
					"midpoints" : [  ]
				}

			}
, 			{
				"patchline" : 				{
					"source" : [ "obj-132", 1 ],
					"destination" : [ "obj-128", 0 ],
					"hidden" : 0,
					"midpoints" : [  ]
				}

			}
, 			{
				"patchline" : 				{
					"source" : [ "obj-126", 0 ],
					"destination" : [ "obj-127", 0 ],
					"hidden" : 0,
					"midpoints" : [  ]
				}

			}
, 			{
				"patchline" : 				{
					"source" : [ "obj-127", 1 ],
					"destination" : [ "obj-123", 0 ],
					"hidden" : 0,
					"midpoints" : [  ]
				}

			}
, 			{
				"patchline" : 				{
					"source" : [ "obj-121", 0 ],
					"destination" : [ "obj-122", 0 ],
					"hidden" : 0,
					"midpoints" : [  ]
				}

			}
, 			{
				"patchline" : 				{
					"source" : [ "obj-122", 1 ],
					"destination" : [ "obj-118", 0 ],
					"hidden" : 0,
					"midpoints" : [  ]
				}

			}
, 			{
				"patchline" : 				{
					"source" : [ "obj-116", 0 ],
					"destination" : [ "obj-117", 0 ],
					"hidden" : 0,
					"midpoints" : [  ]
				}

			}
, 			{
				"patchline" : 				{
					"source" : [ "obj-117", 1 ],
					"destination" : [ "obj-113", 0 ],
					"hidden" : 0,
					"midpoints" : [  ]
				}

			}
, 			{
				"patchline" : 				{
					"source" : [ "obj-52", 0 ],
					"destination" : [ "obj-53", 0 ],
					"hidden" : 0,
					"midpoints" : [  ]
				}

			}
, 			{
				"patchline" : 				{
					"source" : [ "obj-51", 0 ],
					"destination" : [ "obj-53", 1 ],
					"hidden" : 0,
					"midpoints" : [ 343.5, 735.5, 372.5, 735.5 ]
				}

			}
, 			{
				"patchline" : 				{
					"source" : [ "obj-51", 0 ],
					"destination" : [ "obj-52", 0 ],
					"hidden" : 0,
					"midpoints" : [  ]
				}

			}
, 			{
				"patchline" : 				{
					"source" : [ "obj-14", 0 ],
					"destination" : [ "obj-13", 0 ],
					"hidden" : 0,
					"midpoints" : [  ]
				}

			}
, 			{
				"patchline" : 				{
					"source" : [ "obj-14", 0 ],
					"destination" : [ "obj-10", 1 ],
					"hidden" : 0,
					"midpoints" : [ 220.5, 734.5, 249.5, 734.5 ]
				}

			}
, 			{
				"patchline" : 				{
					"source" : [ "obj-13", 0 ],
					"destination" : [ "obj-10", 0 ],
					"hidden" : 0,
					"midpoints" : [  ]
				}

			}
, 			{
				"patchline" : 				{
					"source" : [ "obj-29", 0 ],
					"destination" : [ "obj-37", 0 ],
					"hidden" : 0,
					"midpoints" : [  ]
				}

			}
, 			{
				"patchline" : 				{
					"source" : [ "obj-26", 0 ],
					"destination" : [ "obj-27", 0 ],
					"hidden" : 0,
					"midpoints" : [  ]
				}

			}
, 			{
				"patchline" : 				{
					"source" : [ "obj-43", 0 ],
					"destination" : [ "obj-26", 0 ],
					"hidden" : 0,
					"midpoints" : [ 487.5, 289.0, 486.5, 289.0 ]
				}

			}
, 			{
				"patchline" : 				{
					"source" : [ "obj-43", 0 ],
					"destination" : [ "obj-24", 0 ],
					"hidden" : 0,
					"midpoints" : [ 487.5, 295.5, 559.5, 295.5 ]
				}

			}
, 			{
				"patchline" : 				{
					"source" : [ "obj-9", 0 ],
					"destination" : [ "obj-11", 0 ],
					"hidden" : 0,
					"midpoints" : [  ]
				}

			}
, 			{
				"patchline" : 				{
					"source" : [ "obj-18", 0 ],
					"destination" : [ "obj-21", 0 ],
					"hidden" : 0,
					"midpoints" : [  ]
				}

			}
, 			{
				"patchline" : 				{
					"source" : [ "obj-28", 0 ],
					"destination" : [ "obj-30", 0 ],
					"hidden" : 0,
					"midpoints" : [  ]
				}

			}
, 			{
				"patchline" : 				{
					"source" : [ "obj-41", 0 ],
					"destination" : [ "obj-44", 0 ],
					"hidden" : 0,
					"midpoints" : [  ]
				}

			}
, 			{
				"patchline" : 				{
					"source" : [ "obj-62", 0 ],
					"destination" : [ "obj-63", 0 ],
					"hidden" : 0,
					"midpoints" : [  ]
				}

			}
, 			{
				"patchline" : 				{
					"source" : [ "obj-66", 0 ],
					"destination" : [ "obj-67", 0 ],
					"hidden" : 0,
					"midpoints" : [  ]
				}

			}
, 			{
				"patchline" : 				{
					"source" : [ "obj-70", 0 ],
					"destination" : [ "obj-71", 0 ],
					"hidden" : 0,
					"midpoints" : [  ]
				}

			}
, 			{
				"patchline" : 				{
					"source" : [ "obj-74", 0 ],
					"destination" : [ "obj-75", 0 ],
					"hidden" : 0,
					"midpoints" : [  ]
				}

			}
, 			{
				"patchline" : 				{
					"source" : [ "obj-78", 0 ],
					"destination" : [ "obj-79", 0 ],
					"hidden" : 0,
					"midpoints" : [  ]
				}

			}
, 			{
				"patchline" : 				{
					"source" : [ "obj-82", 0 ],
					"destination" : [ "obj-83", 0 ],
					"hidden" : 0,
					"midpoints" : [  ]
				}

			}
, 			{
				"patchline" : 				{
					"source" : [ "obj-86", 0 ],
					"destination" : [ "obj-87", 0 ],
					"hidden" : 0,
					"midpoints" : [  ]
				}

			}
, 			{
				"patchline" : 				{
					"source" : [ "obj-43", 1 ],
					"destination" : [ "obj-9", 0 ],
					"hidden" : 0,
					"midpoints" : [ 588.833313, 289.5, 594.5, 289.5 ]
				}

			}
, 			{
				"patchline" : 				{
					"source" : [ "obj-43", 1 ],
					"destination" : [ "obj-12", 0 ],
					"hidden" : 0,
					"midpoints" : [ 588.833313, 296.0, 667.5, 296.0 ]
				}

			}
, 			{
				"patchline" : 				{
					"source" : [ "obj-43", 2 ],
					"destination" : [ "obj-18", 0 ],
					"hidden" : 0,
					"midpoints" : [ 690.166687, 289.5, 703.5, 289.5 ]
				}

			}
, 			{
				"patchline" : 				{
					"source" : [ "obj-43", 2 ],
					"destination" : [ "obj-23", 0 ],
					"hidden" : 0,
					"midpoints" : [ 690.166687, 296.0, 776.5, 296.0 ]
				}

			}
, 			{
				"patchline" : 				{
					"source" : [ "obj-43", 3 ],
					"destination" : [ "obj-28", 0 ],
					"hidden" : 0,
					"midpoints" : [ 791.5, 289.5, 813.5, 289.5 ]
				}

			}
, 			{
				"patchline" : 				{
					"source" : [ "obj-43", 3 ],
					"destination" : [ "obj-35", 0 ],
					"hidden" : 0,
					"midpoints" : [ 791.5, 296.0, 886.5, 296.0 ]
				}

			}
, 			{
				"patchline" : 				{
					"source" : [ "obj-43", 4 ],
					"destination" : [ "obj-41", 0 ],
					"hidden" : 0,
					"midpoints" : [ 892.833313, 289.5, 926.5, 289.5 ]
				}

			}
, 			{
				"patchline" : 				{
					"source" : [ "obj-43", 4 ],
					"destination" : [ "obj-45", 0 ],
					"hidden" : 0,
					"midpoints" : [ 892.833313, 296.0, 999.5, 296.0 ]
				}

			}
, 			{
				"patchline" : 				{
					"source" : [ "obj-43", 5 ],
					"destination" : [ "obj-62", 0 ],
					"hidden" : 0,
					"midpoints" : [ 994.166687, 289.5, 1038.5, 289.5 ]
				}

			}
, 			{
				"patchline" : 				{
					"source" : [ "obj-43", 5 ],
					"destination" : [ "obj-64", 0 ],
					"hidden" : 0,
					"midpoints" : [ 994.166687, 296.5, 1111.5, 296.5 ]
				}

			}
, 			{
				"patchline" : 				{
					"source" : [ "obj-43", 6 ],
					"destination" : [ "obj-66", 0 ],
					"hidden" : 0,
					"midpoints" : [ 1095.5, 291.0, 1149.5, 291.0 ]
				}

			}
, 			{
				"patchline" : 				{
					"source" : [ "obj-43", 6 ],
					"destination" : [ "obj-68", 0 ],
					"hidden" : 0,
					"midpoints" : [ 1095.5, 297.5, 1222.5, 297.5 ]
				}

			}
, 			{
				"patchline" : 				{
					"source" : [ "obj-43", 7 ],
					"destination" : [ "obj-70", 0 ],
					"hidden" : 0,
					"midpoints" : [ 1196.833374, 292.5, 1262.5, 292.5 ]
				}

			}
, 			{
				"patchline" : 				{
					"source" : [ "obj-43", 7 ],
					"destination" : [ "obj-72", 0 ],
					"hidden" : 0,
					"midpoints" : [ 1196.833374, 299.0, 1335.5, 299.0 ]
				}

			}
, 			{
				"patchline" : 				{
					"source" : [ "obj-43", 8 ],
					"destination" : [ "obj-74", 0 ],
					"hidden" : 0,
					"midpoints" : [ 1298.166626, 292.5, 1377.5, 292.5 ]
				}

			}
, 			{
				"patchline" : 				{
					"source" : [ "obj-43", 8 ],
					"destination" : [ "obj-76", 0 ],
					"hidden" : 0,
					"midpoints" : [ 1298.166626, 299.0, 1450.5, 299.0 ]
				}

			}
, 			{
				"patchline" : 				{
					"source" : [ "obj-43", 9 ],
					"destination" : [ "obj-78", 0 ],
					"hidden" : 0,
					"midpoints" : [ 1399.5, 293.0, 1490.5, 293.0 ]
				}

			}
, 			{
				"patchline" : 				{
					"source" : [ "obj-43", 9 ],
					"destination" : [ "obj-80", 0 ],
					"hidden" : 0,
					"midpoints" : [ 1399.5, 299.5, 1563.5, 299.5 ]
				}

			}
, 			{
				"patchline" : 				{
					"source" : [ "obj-43", 10 ],
					"destination" : [ "obj-82", 0 ],
					"hidden" : 0,
					"midpoints" : [ 1500.833374, 293.5, 1599.5, 293.5 ]
				}

			}
, 			{
				"patchline" : 				{
					"source" : [ "obj-43", 10 ],
					"destination" : [ "obj-84", 0 ],
					"hidden" : 0,
					"midpoints" : [ 1500.833374, 300.0, 1672.5, 300.0 ]
				}

			}
, 			{
				"patchline" : 				{
					"source" : [ "obj-43", 11 ],
					"destination" : [ "obj-86", 0 ],
					"hidden" : 0,
					"midpoints" : [ 1602.166626, 293.5, 1709.5, 293.5 ]
				}

			}
, 			{
				"patchline" : 				{
					"source" : [ "obj-43", 11 ],
					"destination" : [ "obj-88", 0 ],
					"hidden" : 0,
					"midpoints" : [ 1602.166626, 300.0, 1782.5, 300.0 ]
				}

			}
, 			{
				"patchline" : 				{
					"source" : [ "obj-90", 0 ],
					"destination" : [ "obj-43", 0 ],
					"hidden" : 0,
					"midpoints" : [  ]
				}

			}
, 			{
				"patchline" : 				{
					"source" : [ "obj-92", 0 ],
					"destination" : [ "obj-14", 0 ],
					"hidden" : 0,
					"midpoints" : [  ]
				}

			}
, 			{
				"patchline" : 				{
					"source" : [ "obj-92", 1 ],
					"destination" : [ "obj-51", 0 ],
					"hidden" : 0,
					"midpoints" : [  ]
				}

			}
, 			{
				"patchline" : 				{
					"source" : [ "obj-94", 0 ],
					"destination" : [ "obj-95", 0 ],
					"hidden" : 0,
					"midpoints" : [  ]
				}

			}
, 			{
				"patchline" : 				{
					"source" : [ "obj-94", 0 ],
					"destination" : [ "obj-96", 1 ],
					"hidden" : 0,
					"midpoints" : [ 470.5, 737.5, 499.5, 737.5 ]
				}

			}
, 			{
				"patchline" : 				{
					"source" : [ "obj-95", 0 ],
					"destination" : [ "obj-96", 0 ],
					"hidden" : 0,
					"midpoints" : [  ]
				}

			}
, 			{
				"patchline" : 				{
					"source" : [ "obj-92", 2 ],
					"destination" : [ "obj-94", 0 ],
					"hidden" : 0,
					"midpoints" : [  ]
				}

			}
, 			{
				"patchline" : 				{
					"source" : [ "obj-100", 0 ],
					"destination" : [ "obj-101", 0 ],
					"hidden" : 0,
					"midpoints" : [  ]
				}

			}
, 			{
				"patchline" : 				{
					"source" : [ "obj-99", 0 ],
					"destination" : [ "obj-101", 1 ],
					"hidden" : 0,
					"midpoints" : [ 595.5, 738.5, 626.5, 738.5 ]
				}

			}
, 			{
				"patchline" : 				{
					"source" : [ "obj-99", 0 ],
					"destination" : [ "obj-100", 0 ],
					"hidden" : 0,
					"midpoints" : [  ]
				}

			}
, 			{
				"patchline" : 				{
					"source" : [ "obj-92", 3 ],
					"destination" : [ "obj-99", 0 ],
					"hidden" : 0,
					"midpoints" : [  ]
				}

			}
, 			{
				"patchline" : 				{
					"source" : [ "obj-104", 0 ],
					"destination" : [ "obj-105", 0 ],
					"hidden" : 0,
					"midpoints" : [  ]
				}

			}
, 			{
				"patchline" : 				{
					"source" : [ "obj-104", 0 ],
					"destination" : [ "obj-106", 1 ],
					"hidden" : 0,
					"midpoints" : [ 722.5, 738.5, 751.5, 738.5 ]
				}

			}
, 			{
				"patchline" : 				{
					"source" : [ "obj-105", 0 ],
					"destination" : [ "obj-106", 0 ],
					"hidden" : 0,
					"midpoints" : [  ]
				}

			}
, 			{
				"patchline" : 				{
					"source" : [ "obj-92", 4 ],
					"destination" : [ "obj-104", 0 ],
					"hidden" : 0,
					"midpoints" : [  ]
				}

			}
, 			{
				"patchline" : 				{
					"source" : [ "obj-110", 0 ],
					"destination" : [ "obj-111", 0 ],
					"hidden" : 0,
					"midpoints" : [  ]
				}

			}
, 			{
				"patchline" : 				{
					"source" : [ "obj-109", 0 ],
					"destination" : [ "obj-111", 1 ],
					"hidden" : 0,
					"midpoints" : [ 847.5, 740.5, 877.5, 740.5 ]
				}

			}
, 			{
				"patchline" : 				{
					"source" : [ "obj-109", 0 ],
					"destination" : [ "obj-110", 0 ],
					"hidden" : 0,
					"midpoints" : [  ]
				}

			}
, 			{
				"patchline" : 				{
					"source" : [ "obj-92", 5 ],
					"destination" : [ "obj-109", 0 ],
					"hidden" : 0,
					"midpoints" : [  ]
				}

			}
, 			{
				"patchline" : 				{
					"source" : [ "obj-114", 0 ],
					"destination" : [ "obj-115", 0 ],
					"hidden" : 0,
					"midpoints" : [  ]
				}

			}
, 			{
				"patchline" : 				{
					"source" : [ "obj-114", 0 ],
					"destination" : [ "obj-116", 1 ],
					"hidden" : 0,
					"midpoints" : [ 972.5, 743.5, 1001.5, 743.5 ]
				}

			}
, 			{
				"patchline" : 				{
					"source" : [ "obj-115", 0 ],
					"destination" : [ "obj-116", 0 ],
					"hidden" : 0,
					"midpoints" : [  ]
				}

			}
, 			{
				"patchline" : 				{
					"source" : [ "obj-92", 6 ],
					"destination" : [ "obj-114", 0 ],
					"hidden" : 0,
					"midpoints" : [  ]
				}

			}
, 			{
				"patchline" : 				{
					"source" : [ "obj-119", 0 ],
					"destination" : [ "obj-120", 0 ],
					"hidden" : 0,
					"midpoints" : [  ]
				}

			}
, 			{
				"patchline" : 				{
					"source" : [ "obj-119", 0 ],
					"destination" : [ "obj-121", 1 ],
					"hidden" : 0,
					"midpoints" : [ 1098.5, 742.5, 1127.5, 742.5 ]
				}

			}
, 			{
				"patchline" : 				{
					"source" : [ "obj-120", 0 ],
					"destination" : [ "obj-121", 0 ],
					"hidden" : 0,
					"midpoints" : [  ]
				}

			}
, 			{
				"patchline" : 				{
					"source" : [ "obj-92", 7 ],
					"destination" : [ "obj-119", 0 ],
					"hidden" : 0,
					"midpoints" : [  ]
				}

			}
, 			{
				"patchline" : 				{
					"source" : [ "obj-124", 0 ],
					"destination" : [ "obj-125", 0 ],
					"hidden" : 0,
					"midpoints" : [  ]
				}

			}
, 			{
				"patchline" : 				{
					"source" : [ "obj-124", 0 ],
					"destination" : [ "obj-126", 1 ],
					"hidden" : 0,
					"midpoints" : [ 1221.5, 746.5, 1250.5, 746.5 ]
				}

			}
, 			{
				"patchline" : 				{
					"source" : [ "obj-125", 0 ],
					"destination" : [ "obj-126", 0 ],
					"hidden" : 0,
					"midpoints" : [  ]
				}

			}
, 			{
				"patchline" : 				{
					"source" : [ "obj-92", 8 ],
					"destination" : [ "obj-124", 0 ],
					"hidden" : 0,
					"midpoints" : [  ]
				}

			}
, 			{
				"patchline" : 				{
					"source" : [ "obj-129", 0 ],
					"destination" : [ "obj-130", 0 ],
					"hidden" : 0,
					"midpoints" : [  ]
				}

			}
, 			{
				"patchline" : 				{
					"source" : [ "obj-129", 0 ],
					"destination" : [ "obj-131", 1 ],
					"hidden" : 0,
					"midpoints" : [ 1348.5, 742.5, 1377.5, 742.5 ]
				}

			}
, 			{
				"patchline" : 				{
					"source" : [ "obj-130", 0 ],
					"destination" : [ "obj-131", 0 ],
					"hidden" : 0,
					"midpoints" : [  ]
				}

			}
, 			{
				"patchline" : 				{
					"source" : [ "obj-92", 9 ],
					"destination" : [ "obj-129", 0 ],
					"hidden" : 0,
					"midpoints" : [  ]
				}

			}
, 			{
				"patchline" : 				{
					"source" : [ "obj-134", 0 ],
					"destination" : [ "obj-135", 0 ],
					"hidden" : 0,
					"midpoints" : [  ]
				}

			}
, 			{
				"patchline" : 				{
					"source" : [ "obj-134", 0 ],
					"destination" : [ "obj-136", 1 ],
					"hidden" : 0,
					"midpoints" : [ 1474.5, 738.5, 1503.5, 738.5 ]
				}

			}
, 			{
				"patchline" : 				{
					"source" : [ "obj-135", 0 ],
					"destination" : [ "obj-136", 0 ],
					"hidden" : 0,
					"midpoints" : [  ]
				}

			}
, 			{
				"patchline" : 				{
					"source" : [ "obj-92", 10 ],
					"destination" : [ "obj-134", 0 ],
					"hidden" : 0,
					"midpoints" : [  ]
				}

			}
, 			{
				"patchline" : 				{
					"source" : [ "obj-140", 0 ],
					"destination" : [ "obj-141", 0 ],
					"hidden" : 0,
					"midpoints" : [  ]
				}

			}
, 			{
				"patchline" : 				{
					"source" : [ "obj-139", 0 ],
					"destination" : [ "obj-141", 1 ],
					"hidden" : 0,
					"midpoints" : [ 1600.5, 738.5, 1629.5, 738.5 ]
				}

			}
, 			{
				"patchline" : 				{
					"source" : [ "obj-139", 0 ],
					"destination" : [ "obj-140", 0 ],
					"hidden" : 0,
					"midpoints" : [  ]
				}

			}
, 			{
				"patchline" : 				{
					"source" : [ "obj-92", 11 ],
					"destination" : [ "obj-139", 0 ],
					"hidden" : 0,
					"midpoints" : [  ]
				}

			}
, 			{
				"patchline" : 				{
					"source" : [ "obj-143", 0 ],
					"destination" : [ "obj-92", 0 ],
					"hidden" : 0,
					"midpoints" : [  ]
				}

			}
, 			{
				"patchline" : 				{
					"source" : [ "obj-10", 0 ],
					"destination" : [ "obj-2", 0 ],
					"hidden" : 0,
					"midpoints" : [  ]
				}

			}
, 			{
				"patchline" : 				{
					"source" : [ "obj-2", 1 ],
					"destination" : [ "obj-15", 0 ],
					"hidden" : 0,
					"midpoints" : [  ]
				}

			}
, 			{
				"patchline" : 				{
					"source" : [ "obj-53", 0 ],
					"destination" : [ "obj-54", 0 ],
					"hidden" : 0,
					"midpoints" : [  ]
				}

			}
, 			{
				"patchline" : 				{
					"source" : [ "obj-54", 1 ],
					"destination" : [ "obj-50", 0 ],
					"hidden" : 0,
					"midpoints" : [  ]
				}

			}
, 			{
				"patchline" : 				{
					"source" : [ "obj-96", 0 ],
					"destination" : [ "obj-97", 0 ],
					"hidden" : 0,
					"midpoints" : [  ]
				}

			}
, 			{
				"patchline" : 				{
					"source" : [ "obj-97", 1 ],
					"destination" : [ "obj-93", 0 ],
					"hidden" : 0,
					"midpoints" : [  ]
				}

			}
, 			{
				"patchline" : 				{
					"source" : [ "obj-102", 1 ],
					"destination" : [ "obj-98", 0 ],
					"hidden" : 0,
					"midpoints" : [  ]
				}

			}
, 			{
				"patchline" : 				{
					"source" : [ "obj-101", 0 ],
					"destination" : [ "obj-102", 0 ],
					"hidden" : 0,
					"midpoints" : [  ]
				}

			}
, 			{
				"patchline" : 				{
					"source" : [ "obj-107", 1 ],
					"destination" : [ "obj-103", 0 ],
					"hidden" : 0,
					"midpoints" : [  ]
				}

			}
, 			{
				"patchline" : 				{
					"source" : [ "obj-106", 0 ],
					"destination" : [ "obj-107", 0 ],
					"hidden" : 0,
					"midpoints" : [  ]
				}

			}
, 			{
				"patchline" : 				{
					"source" : [ "obj-112", 1 ],
					"destination" : [ "obj-108", 0 ],
					"hidden" : 0,
					"midpoints" : [  ]
				}

			}
, 			{
				"patchline" : 				{
					"source" : [ "obj-111", 0 ],
					"destination" : [ "obj-112", 0 ],
					"hidden" : 0,
					"midpoints" : [  ]
				}

			}
, 			{
				"patchline" : 				{
					"source" : [ "obj-24", 0 ],
					"destination" : [ "obj-20", 0 ],
					"hidden" : 0,
					"midpoints" : [ 559.5, 375.0, 486.5, 375.0 ]
				}

			}
, 			{
				"patchline" : 				{
					"source" : [ "obj-27", 0 ],
					"destination" : [ "obj-20", 0 ],
					"hidden" : 0,
					"midpoints" : [  ]
				}

			}
, 			{
				"patchline" : 				{
					"source" : [ "obj-12", 0 ],
					"destination" : [ "obj-17", 0 ],
					"hidden" : 0,
					"midpoints" : [ 667.5, 376.0, 594.5, 376.0 ]
				}

			}
, 			{
				"patchline" : 				{
					"source" : [ "obj-11", 0 ],
					"destination" : [ "obj-17", 0 ],
					"hidden" : 0,
					"midpoints" : [  ]
				}

			}
, 			{
				"patchline" : 				{
					"source" : [ "obj-23", 0 ],
					"destination" : [ "obj-25", 0 ],
					"hidden" : 0,
					"midpoints" : [ 776.5, 376.0, 703.5, 376.0 ]
				}

			}
, 			{
				"patchline" : 				{
					"source" : [ "obj-21", 0 ],
					"destination" : [ "obj-25", 0 ],
					"hidden" : 0,
					"midpoints" : [  ]
				}

			}
, 			{
				"patchline" : 				{
					"source" : [ "obj-30", 0 ],
					"destination" : [ "obj-36", 0 ],
					"hidden" : 0,
					"midpoints" : [  ]
				}

			}
, 			{
				"patchline" : 				{
					"source" : [ "obj-35", 0 ],
					"destination" : [ "obj-36", 0 ],
					"hidden" : 0,
					"midpoints" : [ 886.5, 376.0, 814.5, 376.0 ]
				}

			}
, 			{
				"patchline" : 				{
					"source" : [ "obj-45", 0 ],
					"destination" : [ "obj-46", 0 ],
					"hidden" : 0,
					"midpoints" : [ 999.5, 376.0, 928.5, 376.0 ]
				}

			}
, 			{
				"patchline" : 				{
					"source" : [ "obj-44", 0 ],
					"destination" : [ "obj-46", 0 ],
					"hidden" : 0,
					"midpoints" : [  ]
				}

			}
, 			{
				"patchline" : 				{
					"source" : [ "obj-63", 0 ],
					"destination" : [ "obj-65", 0 ],
					"hidden" : 0,
					"midpoints" : [  ]
				}

			}
, 			{
				"patchline" : 				{
					"source" : [ "obj-64", 0 ],
					"destination" : [ "obj-65", 0 ],
					"hidden" : 0,
					"midpoints" : [ 1111.5, 376.0, 1040.5, 376.0 ]
				}

			}
, 			{
				"patchline" : 				{
					"source" : [ "obj-25", 0 ],
					"destination" : [ "obj-22", 0 ],
					"hidden" : 0,
					"midpoints" : [ 703.5, 433.5, 971.5, 433.5 ]
				}

			}
, 			{
				"patchline" : 				{
					"source" : [ "obj-37", 1 ],
					"destination" : [ "obj-91", 0 ],
					"hidden" : 0,
					"midpoints" : [  ]
				}

			}
, 			{
				"patchline" : 				{
					"source" : [ "obj-68", 0 ],
					"destination" : [ "obj-69", 0 ],
					"hidden" : 0,
					"midpoints" : [ 1222.5, 378.0, 1149.5, 378.0 ]
				}

			}
, 			{
				"patchline" : 				{
					"source" : [ "obj-67", 0 ],
					"destination" : [ "obj-69", 0 ],
					"hidden" : 0,
					"midpoints" : [  ]
				}

			}
, 			{
				"patchline" : 				{
					"source" : [ "obj-71", 0 ],
					"destination" : [ "obj-73", 0 ],
					"hidden" : 0,
					"midpoints" : [  ]
				}

			}
, 			{
				"patchline" : 				{
					"source" : [ "obj-72", 0 ],
					"destination" : [ "obj-73", 0 ],
					"hidden" : 0,
					"midpoints" : [ 1335.5, 381.0, 1262.5, 381.0 ]
				}

			}
, 			{
				"patchline" : 				{
					"source" : [ "obj-75", 0 ],
					"destination" : [ "obj-77", 0 ],
					"hidden" : 0,
					"midpoints" : [  ]
				}

			}
, 			{
				"patchline" : 				{
					"source" : [ "obj-76", 0 ],
					"destination" : [ "obj-77", 0 ],
					"hidden" : 0,
					"midpoints" : [ 1450.5, 381.0, 1377.5, 381.0 ]
				}

			}
, 			{
				"patchline" : 				{
					"source" : [ "obj-80", 0 ],
					"destination" : [ "obj-81", 0 ],
					"hidden" : 0,
					"midpoints" : [ 1563.5, 382.0, 1490.5, 382.0 ]
				}

			}
, 			{
				"patchline" : 				{
					"source" : [ "obj-79", 0 ],
					"destination" : [ "obj-81", 0 ],
					"hidden" : 0,
					"midpoints" : [  ]
				}

			}
, 			{
				"patchline" : 				{
					"source" : [ "obj-84", 0 ],
					"destination" : [ "obj-85", 0 ],
					"hidden" : 0,
					"midpoints" : [ 1672.5, 383.0, 1599.5, 383.0 ]
				}

			}
, 			{
				"patchline" : 				{
					"source" : [ "obj-83", 0 ],
					"destination" : [ "obj-85", 0 ],
					"hidden" : 0,
					"midpoints" : [  ]
				}

			}
, 			{
				"patchline" : 				{
					"source" : [ "obj-88", 0 ],
					"destination" : [ "obj-89", 0 ],
					"hidden" : 0,
					"midpoints" : [ 1782.5, 383.0, 1709.5, 383.0 ]
				}

			}
, 			{
				"patchline" : 				{
					"source" : [ "obj-87", 0 ],
					"destination" : [ "obj-89", 0 ],
					"hidden" : 0,
					"midpoints" : [  ]
				}

			}
, 			{
				"patchline" : 				{
					"source" : [ "obj-36", 0 ],
					"destination" : [ "obj-22", 0 ],
					"hidden" : 0,
					"midpoints" : [ 814.5, 453.0, 971.5, 453.0 ]
				}

			}
, 			{
				"patchline" : 				{
					"source" : [ "obj-46", 0 ],
					"destination" : [ "obj-22", 0 ],
					"hidden" : 0,
					"midpoints" : [ 928.5, 453.0, 971.5, 453.0 ]
				}

			}
, 			{
				"patchline" : 				{
					"source" : [ "obj-65", 0 ],
					"destination" : [ "obj-22", 0 ],
					"hidden" : 0,
					"midpoints" : [ 1040.5, 450.0, 971.5, 450.0 ]
				}

			}
, 			{
				"patchline" : 				{
					"source" : [ "obj-69", 0 ],
					"destination" : [ "obj-22", 1 ],
					"hidden" : 0,
					"midpoints" : [ 1149.5, 417.0, 1158.0, 417.0, 1158.0, 462.0, 997.5, 462.0 ]
				}

			}
, 			{
				"patchline" : 				{
					"source" : [ "obj-73", 0 ],
					"destination" : [ "obj-22", 1 ],
					"hidden" : 0,
					"midpoints" : [ 1262.5, 462.0, 997.5, 462.0 ]
				}

			}
, 			{
				"patchline" : 				{
					"source" : [ "obj-77", 0 ],
					"destination" : [ "obj-22", 1 ],
					"hidden" : 0,
					"midpoints" : [ 1377.5, 462.0, 997.5, 462.0 ]
				}

			}
, 			{
				"patchline" : 				{
					"source" : [ "obj-81", 0 ],
					"destination" : [ "obj-22", 1 ],
					"hidden" : 0,
					"midpoints" : [ 1490.5, 462.0, 997.5, 462.0 ]
				}

			}
, 			{
				"patchline" : 				{
					"source" : [ "obj-85", 0 ],
					"destination" : [ "obj-22", 1 ],
					"hidden" : 0,
					"midpoints" : [ 1599.5, 462.0, 997.5, 462.0 ]
				}

			}
, 			{
				"patchline" : 				{
					"source" : [ "obj-89", 0 ],
					"destination" : [ "obj-22", 1 ],
					"hidden" : 0,
					"midpoints" : [ 1709.5, 462.0, 997.5, 462.0 ]
				}

			}
, 			{
				"patchline" : 				{
					"source" : [ "obj-33", 0 ],
					"destination" : [ "obj-32", 0 ],
					"hidden" : 0,
					"midpoints" : [  ]
				}

			}
, 			{
				"patchline" : 				{
					"source" : [ "obj-34", 0 ],
					"destination" : [ "obj-32", 0 ],
					"hidden" : 0,
					"midpoints" : [ 1544.5, 170.0, 1428.5, 170.0 ]
				}

			}
 ]
	}

}
